<?xml version="1.0" encoding="utf-8"?>
<svg version="1.1" id="Layer_1" xmlns="http://www.w3.org/2000/svg" xmlns:xlink="http://www.w3.org/1999/xlink" x="0px" y="0px"
	width="94"  height = "94" viewBox="-0.1 -0.1 94.21 88.72" enable-background="new -0.1 -0.1 94.21 88.72" xml:space="preserve">
<g>
	<g>
		<path fill="#826550" d="M87.19,22.42c-0.57,1.73-1.13,3.48-1.68,5.22c9.74,18.26,3.5,42.63-12.98,54.17
			c1.16,0.71,2.22,1.58,3.14,2.67C94.39,70.79,99.99,42.34,87.19,22.42z"/>
		<path fill="#826550" d="M9.52,70.34c0.45,0,0.9,0.01,1.34,0.02c-23.2-36.75,15.86-80.71,55.13-61.98
			c0.72-1.16,1.53-2.25,2.44-3.26C26.59-15.7-16.62,29.8,6.23,70.48C7.36,70.37,8.48,70.34,9.52,70.34z"/>
	</g>
</g>
<path fill="#826550" d="M53.45,82.04c0.44-6.14-0.87-14.02,0.66-19.07c4.53-0.08,9.56,0.35,13.15-0.66
	c8.17-14.84,12.03-34.01,18.42-50.64c0-0.88,0-1.75,0-2.63c-0.67-3.05-3.75-3.7-6.58-4.6c-0.22,0-0.44,0-0.66,0
	c-10.6,3.43-11.96,16.1-14.47,27.62C48.18,27.92,31.68,32,31.09,47.19c-4.53,0.08-7.98,1.22-9.86,3.95
	c-0.57,6.71,1.57,10.71,6.58,11.84c-1.24,5.34-3.64,9.51-7.23,12.49c-6.4,0.61-15.64-1.6-19.07,1.98c0,0.88,0,1.75,0,2.63
	c3.15,3.86,12.85,1.18,19.07,1.97c6.59-3.93,8.46-12.59,11.84-19.73c4.67,0.37,10.86-0.78,14.47,0.66c0,6.58,0,13.15,0,19.73
	c-7.83,0.5-15.45,1.21-19.07,5.92c14.91,0,29.81,0,44.72,0C69.27,83.33,60.05,83.99,53.45,82.04z M37.67,47.19
	c0.68-11.7,15.37-11.69,25.65-8.55c0.1,4.72-0.52,10.16,1.31,13.15C57.59,50.94,47.56,47.39,37.67,47.19z"/>
</svg>
