<?xml version="1.0" encoding="utf-8"?>
<svg version="1.1" id="Layer_1" xmlns="http://www.w3.org/2000/svg" xmlns:xlink="http://www.w3.org/1999/xlink" x="0px" y="0px"
	 width="94"  height = "94" viewBox="0 0 94.16 91.99" enable-background="new 0 0 94.16 91.99" xml:space="preserve">
<path fill="#826550" d="M47.08,8.17c5.03,0,9.11,4.08,9.11,9.11c0,5.03-4.08,9.11-9.11,9.11c-5.03,0-9.11-4.08-9.11-9.11
	C37.98,12.25,42.05,8.17,47.08,8.17z"/>
<path fill="#826550" d="M67.46,26.38c-10.16,0-30.59,0-40.75,0c-3.7-0.07-2.71,4.98-2.82,7.29c-0.02,1.95,1.84,3.07,3.64,2.82v45.39
	c-1.8-0.25-3.67,0.86-3.64,2.82c0.15,2.31-0.91,7.36,2.82,7.29c0,0,40.75,0,40.75,0c1.55,0,2.82-1.27,2.82-2.82
	c0-2.7,0.72-8.02-3.64-7.29V36.49c1.8,0.25,3.66-0.86,3.64-2.82C70.16,31.37,71.16,26.31,67.46,26.38z M33.66,36.49h13.2l-13.2,13.2
	V36.49z M60.5,81.88H47.03L60.5,68.41V81.88z M60.5,53.17L33.66,80.01V64.93L60.5,38.09V53.17z"/>
<path fill="#826550" d="M47.08,0C2.76-1.59-16.86,60.09,18.89,84.79c-0.02-1.53,0.42-2.97,1.18-4.19C-11.23,57.26,7.35,2.61,47.08,4
	C86.81,2.61,105.4,57.26,74.1,80.6c0.75,1.21,1.19,2.66,1.18,4.18C111.04,60.08,91.39-1.59,47.08,0z"/>
</svg>
