<?xml version="1.0" encoding="utf-8"?>
<!-- Generator: Adobe Illustrator 24.1.2, SVG Export Plug-In . SVG Version: 6.00 Build 0)  -->
<svg version="1.1" id="Layer_2" xmlns="http://www.w3.org/2000/svg" xmlns:xlink="http://www.w3.org/1999/xlink" x="0px" y="0px" width="141.7" height="139.5"
	 viewBox="0 0 141.7 139.5" enable-background="new 0 0 141.7 139.5" xml:space="preserve">
<g>
	<path d="M71.8,21.5V1c0-0.6-0.4-1-1-1c-0.6,0-1,0.4-1,1v20.5c0.3,0,0.7,0,1,0C71.2,21.4,71.5,21.5,71.8,21.5z"/>
	<path d="M45.8,28.4c0.6-0.3,1.1-0.7,1.7-1L37.3,9.7c-0.3-0.5-0.9-0.6-1.4-0.4c-0.5,0.3-0.6,0.9-0.4,1.4L45.8,28.4z"/>
	<path d="M10.5,34.7c-0.3,0.5-0.1,1.1,0.4,1.4l17.7,10.3c0.3-0.6,0.7-1.2,1-1.7L11.9,34.4C11.4,34.1,10.8,34.2,10.5,34.7z"/>
	<path d="M106.4,8.5c-0.5-0.3-1.1-0.1-1.4,0.4L94.2,27.5c0.6,0.3,1.2,0.7,1.7,1l10.8-18.6C107.1,9.4,106.9,8.8,106.4,8.5z"/>
	<path d="M131.8,35.7c0.5-0.3,0.6-0.9,0.4-1.4c-0.3-0.5-0.9-0.6-1.4-0.4l-18.6,10.8c0.3,0.6,0.7,1.1,1,1.7L131.8,35.7z"/>
	<path d="M22.5,69.8c0-0.3,0-0.7,0-1H1c-0.6,0-1,0.4-1,1c0,0.6,0.4,1,1,1h21.5C22.5,70.4,22.5,70.1,22.5,69.8z"/>
	<path d="M140.7,68.8h-21.5c0,0.3,0,0.7,0,1s0,0.7,0,1h21.5c0.6,0,1-0.4,1-1C141.7,69.2,141.2,68.8,140.7,68.8z"/>
	<path d="M130.8,103.4l-17.7-10.3c-0.3,0.6-0.7,1.2-1,1.7l17.7,10.3c0.2,0.1,0.3,0.1,0.5,0.1c0.3,0,0.7-0.2,0.9-0.5
		C131.4,104.3,131.3,103.7,130.8,103.4z"/>
	<path d="M9.9,103.9c-0.5,0.3-0.6,0.9-0.4,1.4c0.2,0.3,0.5,0.5,0.9,0.5c0.2,0,0.3,0,0.5-0.1l18.6-10.8c-0.3-0.6-0.7-1.1-1-1.7
		L9.9,103.9z"/>
	<path d="M95.9,111.1c-0.6,0.3-1.1,0.7-1.7,1l10.2,17.7c0.2,0.3,0.5,0.5,0.9,0.5c0.2,0,0.3,0,0.5-0.1c0.5-0.3,0.6-0.9,0.4-1.4
		L95.9,111.1z"/>
	<path d="M34.9,129.7c-0.3,0.5-0.1,1.1,0.4,1.4c0.2,0.1,0.3,0.1,0.5,0.1c0.3,0,0.7-0.2,0.9-0.5l10.8-18.6c-0.6-0.3-1.2-0.7-1.7-1
		L34.9,129.7z"/>
	<path d="M69.8,118.1v20.5c0,0.6,0.4,1,1,1c0.6,0,1-0.4,1-1v-20.5c-0.3,0-0.7,0-1,0C70.5,118.1,70.2,118.1,69.8,118.1z"/>
	<path d="M104.7,51.9c0.7-0.4,1-1.3,0.5-2c-0.4-0.7-1.3-1-2-0.5L74.8,65.7l0,0c-1-1-2.4-1.6-4-1.6c-1.5,0-2.9,0.6-4,1.6L46.5,53.9
		c-0.7-0.4-1.6-0.2-2.1,0.5c-0.4,0.7-0.2,1.6,0.5,2.1l20.3,11.8c-0.1,0.5-0.2,0.9-0.2,1.4c0,3.1,2.5,5.7,5.7,5.7
		c3.1,0,5.7-2.5,5.7-5.7c0-0.5-0.1-1-0.2-1.4L104.7,51.9z M75.3,66.3C75.3,66.3,75.3,66.3,75.3,66.3C75.3,66.3,75.3,66.3,75.3,66.3z
		 M75.7,66.9C75.7,66.9,75.7,66.9,75.7,66.9C75.7,66.9,75.7,66.9,75.7,66.9z M66,66.9C65.9,66.9,65.9,66.9,66,66.9
		C65.9,66.9,65.9,66.9,66,66.9z M66.4,66.3C66.4,66.3,66.3,66.3,66.4,66.3C66.3,66.3,66.4,66.3,66.4,66.3z M70.8,72.4
		c-1.5,0-2.7-1.2-2.7-2.7s1.2-2.7,2.7-2.7c1.5,0,2.7,1.2,2.7,2.7S72.3,72.4,70.8,72.4z"/>
</g>
</svg>
