<?xml version="1.0" encoding="UTF-8" standalone="no"?>
<svg
   xmlns:dc="http://purl.org/dc/elements/1.1/"
   xmlns:cc="http://creativecommons.org/ns#"
   xmlns:rdf="http://www.w3.org/1999/02/22-rdf-syntax-ns#"
   xmlns:svg="http://www.w3.org/2000/svg"
   xmlns="http://www.w3.org/2000/svg"
   viewBox="0 0 125.5508 122.65493"
   height="122.65493"
   width="125.5508"
   xml:space="preserve"
   id="svg2"
   version="1.1"><metadata
     id="metadata8"><rdf:RDF><cc:Work
         rdf:about=""><dc:format>image/svg+xml</dc:format><dc:type
           rdf:resource="http://purl.org/dc/dcmitype/StillImage" /></cc:Work></rdf:RDF></metadata><defs
     id="defs6"><clipPath
       id="clipPath18"
       clipPathUnits="userSpaceOnUse"><path
         id="path16"
         d="M 0,91.991 H 94.163 V 0 H 0 Z" /></clipPath></defs><g
     transform="matrix(1.3333333,0,0,-1.3333333,0,122.65493)"
     id="g10"><g
       id="g12"><g
         clip-path="url(#clipPath18)"
         id="g14"><g
           transform="translate(47.082,83.8184)"
           id="g20"><path
             id="path22"
             style="fill:#ed1c24;fill-opacity:1;fill-rule:nonzero;stroke:none"
             d="m 0,0 c 5.029,0 9.105,-4.077 9.105,-9.106 0,-5.029 -4.076,-9.106 -9.105,-9.106 -5.029,0 -9.106,4.077 -9.106,9.106 C -9.106,-4.077 -5.029,0 0,0" /></g><g
           transform="translate(60.501,38.8232)"
           id="g24"><path
             id="path26"
             style="fill:#ed1c24;fill-opacity:1;fill-rule:nonzero;stroke:none"
             d="m 0,0 -26.839,-26.84 v 15.076 L 0,15.075 Z M 0,-28.717 H -13.474 L 0,-15.242 Z M -26.839,16.677 H -13.64 L -26.839,3.479 Z M 6.957,26.783 h -20.376 -20.377 c -1.55,0 -2.817,-1.268 -2.817,-2.817 v -4.47 c 0,-1.55 1.268,-2.818 2.817,-2.818 h 0.828 v -45.394 h -0.828 c -1.55,0 -2.817,-1.268 -2.817,-2.818 v -4.471 c 0,-1.552 1.268,-2.818 2.817,-2.818 H 6.957 c 1.551,0 2.817,1.268 2.817,2.818 v 4.471 c 0,1.55 -1.269,2.818 -2.817,2.818 H 6.131 v 45.393 h 0.826 c 1.551,0 2.817,1.268 2.817,2.818 v 4.47 c 0,1.55 -1.266,2.818 -2.817,2.818" /></g><g
           transform="translate(47.0811,91.9912)"
           id="g28"><path
             id="path30"
             style="fill:#ed1c24;fill-opacity:1;fill-rule:nonzero;stroke:none"
             d="m 0,0 c -26.002,0 -47.081,-21.079 -47.081,-47.081 0,-15.428 7.421,-29.122 18.888,-37.709 v 0.088 c 0,1.505 0.438,2.903 1.177,4.098 -9.788,7.903 -16.065,19.991 -16.065,33.523 C -43.081,-23.326 -23.755,-4 0,-4 c 23.754,0 43.081,-19.326 43.081,-43.081 0,-13.53 -6.275,-25.618 -16.062,-33.523 0.738,-1.193 1.177,-2.593 1.177,-4.098 v -0.086 c 11.466,8.587 18.886,22.28 18.886,37.707 C 47.081,-21.079 26.002,0 0,0" /></g></g></g></g></svg>