<?xml version="1.0" encoding="UTF-8" standalone="no"?>
<svg
   xmlns:dc="http://purl.org/dc/elements/1.1/"
   xmlns:cc="http://creativecommons.org/ns#"
   xmlns:rdf="http://www.w3.org/1999/02/22-rdf-syntax-ns#"
   xmlns:svg="http://www.w3.org/2000/svg"
   xmlns="http://www.w3.org/2000/svg"
   viewBox="0 0 126.59173 125.55147"
   height="125.55147"
   width="126.59173"
   xml:space="preserve"
   id="svg2"
   version="1.1"><metadata
     id="metadata8"><rdf:RDF><cc:Work
         rdf:about=""><dc:format>image/svg+xml</dc:format><dc:type
           rdf:resource="http://purl.org/dc/dcmitype/StillImage" /></cc:Work></rdf:RDF></metadata><defs
     id="defs6"><clipPath
       id="clipPath18"
       clipPathUnits="userSpaceOnUse"><path
         id="path16"
         d="M 0,94.164 H 94.944 V 0 H 0 Z" /></clipPath></defs><g
     transform="matrix(1.3333333,0,0,-1.3333333,0,125.55147)"
     id="g10"><g
       id="g12"><g
         clip-path="url(#clipPath18)"
         id="g14"><g
           transform="translate(90.2842,65.7739)"
           id="g20"><path
             id="path22"
             style="fill:#ed1c24;fill-opacity:1;fill-rule:evenodd;stroke:none"
             d="M 0,0 C -2.102,4.839 -4.99,9.26 -8.508,13.097 -9.155,11.836 -9.816,10.578 -10.483,9.318 -7.906,6.311 -5.738,2.946 -4.062,-0.695 -2.722,-0.453 -1.367,-0.228 0,0" /></g><g
           transform="translate(90.0088,50.5991)"
           id="g24"><path
             id="path26"
             style="fill:#ed1c24;fill-opacity:1;fill-rule:evenodd;stroke:none"
             d="m 0,0 c 0.094,-1.161 0.155,-2.332 0.155,-3.518 0,-23.793 -19.288,-43.081 -43.082,-43.081 -0.786,0 -1.566,0.024 -2.342,0.065 0.134,-0.57 0.228,-1.176 0.219,-1.84 -0.011,-0.756 -0.158,-1.476 -0.404,-2.155 0.837,-0.045 1.679,-0.07 2.527,-0.07 25.961,0 47.082,21.12 47.082,47.081 0,2.089 -0.151,4.142 -0.416,6.16 C 2.551,1.688 1.301,0.812 0,0" /></g><g
           transform="translate(4,47.0815)"
           id="g28"><path
             id="path30"
             style="fill:#ed1c24;fill-opacity:1;fill-rule:evenodd;stroke:none"
             d="m 0,0 c 0,23.794 19.288,43.082 43.082,43.082 7.861,0 15.224,-2.116 21.568,-5.793 1.085,0.858 2.211,1.736 3.362,2.624 -7.235,4.535 -15.779,7.169 -24.93,7.169 C 17.121,47.082 -4,25.961 -4,0 c 0,-19.806 12.3,-36.783 29.657,-43.725 -0.4,1.499 -0.562,3.068 -0.569,4.582 C 10.283,-32.325 0,-17.368 0,0" /></g><g
           transform="translate(36.7871,19.1699)"
           id="g32"><path
             id="path34"
             style="fill:#ed1c24;fill-opacity:1;fill-rule:evenodd;stroke:none"
             d="M 0,0 C -1.857,9.002 7.01,16.95 11.896,9.252 12.156,1.833 5.715,-6.517 0,0 m 10.295,28.913 c 1.427,0 2.583,-1.157 2.583,-2.584 0,-1.427 -1.156,-2.583 -2.583,-2.583 -1.427,0 -2.584,1.156 -2.584,2.583 0,1.427 1.157,2.584 2.584,2.584 M 1.983,-9.913 c 7.738,2.722 16.312,9.663 14.539,19.826 -0.898,5.146 -4.48,5.001 -7.27,9.252 14.438,11.998 24.213,28.657 33.044,46.261 H 40.313 C 32.867,59.766 18.403,48.443 11.896,38.991 9.293,35.211 7.303,29.678 4.626,25.113 0.084,17.368 -10.498,3.882 -1.982,-5.948 c -1.38,-4.619 -1.205,-12.388 3.965,-12.556 3.268,1.727 -1.385,4.604 0,8.591" /></g><g
           transform="translate(55.9526,42.9609)"
           id="g36"><path
             id="path38"
             style="fill:#ed1c24;fill-opacity:1;fill-rule:evenodd;stroke:none"
             d="M 0,0 C 13.963,5.202 30.578,7.753 38.991,18.504 29.576,17.125 20.872,15.035 11.235,13.878 9.1,7.643 4.204,4.167 0,0" /></g><g
           transform="translate(17.6221,46.9263)"
           id="g40"><path
             id="path42"
             style="fill:#ed1c24;fill-opacity:1;fill-rule:evenodd;stroke:none"
             d="M 0,0 C -5.123,10.84 12.89,11.066 14.539,5.287 16.717,-2.345 5.441,-2.745 0,0 M -5.287,7.27 C -9.51,-4.979 3.138,-8.721 16.521,-6.608 c 3.784,4.815 5.85,9.964 1.983,15.86 -4.893,7.461 -20.91,6.373 -23.791,-1.982" /></g></g></g></g></svg>