<?xml version="1.0" encoding="UTF-8" standalone="no"?>
<svg
   xmlns:dc="http://purl.org/dc/elements/1.1/"
   xmlns:cc="http://creativecommons.org/ns#"
   xmlns:rdf="http://www.w3.org/1999/02/22-rdf-syntax-ns#"
   xmlns:svg="http://www.w3.org/2000/svg"
   xmlns="http://www.w3.org/2000/svg"
   viewBox="0 0 125.54813 118.16013"
   height="118.16013"
   width="125.54813"
   xml:space="preserve"
   id="svg2"
   version="1.1"><metadata
     id="metadata8"><rdf:RDF><cc:Work
         rdf:about=""><dc:format>image/svg+xml</dc:format><dc:type
           rdf:resource="http://purl.org/dc/dcmitype/StillImage" /></cc:Work></rdf:RDF></metadata><defs
     id="defs6"><clipPath
       id="clipPath18"
       clipPathUnits="userSpaceOnUse"><path
         id="path16"
         d="M 0,88.62 H 94.161 V 0 H 0 Z" /></clipPath></defs><g
     transform="matrix(1.3333333,0,0,-1.3333333,0,118.16013)"
     id="g10"><g
       id="g12"><g
         clip-path="url(#clipPath18)"
         id="g14"><g
           transform="translate(87.1895,66.1963)"
           id="g20"><path
             id="path22"
             style="fill:#ed1c24;fill-opacity:1;fill-rule:nonzero;stroke:none"
             d="m 0,0 c -0.57,-1.734 -1.131,-3.478 -1.68,-5.223 2.969,-5.844 4.652,-12.444 4.652,-19.435 0,-14.241 -6.951,-26.885 -17.634,-34.733 1.162,-0.707 2.22,-1.582 3.14,-2.666 11.239,8.605 18.494,22.151 18.494,37.399 C 6.973,-15.616 4.418,-7.172 0,0" /></g><g
           transform="translate(9.5161,18.2832)"
           id="g24"><path
             id="path26"
             style="fill:#ed1c24;fill-opacity:1;fill-rule:nonzero;stroke:none"
             d="m 0,0 c 0.446,0 0.896,-0.015 1.345,-0.024 -4.334,6.718 -6.861,14.707 -6.861,23.279 0,23.756 19.326,43.082 43.081,43.082 6.78,0 13.198,-1.58 18.911,-4.383 0.718,1.162 1.527,2.252 2.44,3.259 -6.411,3.269 -13.663,5.124 -21.351,5.124 -26.002,0 -47.081,-21.079 -47.081,-47.082 0,-8.522 2.275,-16.507 6.235,-23.402 C -2.152,-0.035 -1.039,0 0,0" /></g><g
           transform="translate(37.6699,41.4346)"
           id="g28"><path
             id="path30"
             style="fill:#ed1c24;fill-opacity:1;fill-rule:nonzero;stroke:none"
             d="M 0,0 C 0.684,11.704 15.366,11.688 25.648,8.548 25.751,3.828 25.132,-1.614 26.963,-4.604 19.921,-3.752 9.885,-0.203 0,0 m 15.784,-34.856 c 0.437,6.143 -0.872,14.024 0.657,19.071 4.528,0.076 9.561,-0.354 13.153,0.658 8.174,14.845 12.026,34.008 18.416,50.64 v 2.631 c -0.675,3.054 -3.753,3.702 -6.578,4.604 H 40.775 C 30.176,39.317 28.818,26.644 26.309,15.125 10.514,19.269 -5.99,15.185 -6.576,0 c -4.528,-0.076 -7.984,-1.225 -9.865,-3.946 -0.572,-6.709 1.569,-10.705 6.577,-11.839 -1.238,-5.338 -3.641,-9.512 -7.234,-12.493 -6.405,-0.613 -15.636,1.604 -19.072,-1.976 v -2.629 c 3.151,-3.863 12.855,-1.178 19.072,-1.974 6.593,3.929 8.458,12.587 11.838,19.728 4.674,-0.367 10.865,0.781 14.468,-0.656 v -19.73 c -7.826,-0.504 -15.446,-1.214 -19.072,-5.92 h 44.721 c -3.255,5.294 -12.472,4.626 -19.073,6.579" /></g></g></g></g></svg>