<?xml version="1.0" encoding="utf-8"?>
<!-- Generator: Adobe Illustrator 24.1.2, SVG Export Plug-In . SVG Version: 6.00 Build 0)  -->
<svg version="1.1" id="Layer_1" xmlns="http://www.w3.org/2000/svg" xmlns:xlink="http://www.w3.org/1999/xlink" x="0px" y="0px"
	 width="21px" height="21px" viewBox="0 0 21 21" enable-background="new 0 0 21 21" xml:space="preserve">
<path fill="#FFFFFF" d="M18,0H3C1.4,0,0,1.4,0,3v15c0,1.6,1.4,3,3,3h15c1.6,0,3-1.4,3-3V3C21,1.4,19.6,0,18,0z M10.5,7
	c4.6,0.1,4.6,6.9,0,7C5.9,13.9,5.9,7.1,10.5,7z M18,18H3V9h1.2c-1,4,2.2,8.1,6.3,8c4.1,0.1,7.3-4,6.3-8H18V18z M18,7h-4V3h4V7z"/>
</svg>
