<?xml version="1.0" encoding="utf-8"?>
<!-- Generator: Adobe Illustrator 24.1.2, SVG Export Plug-In . SVG Version: 6.00 Build 0)  -->
<svg version="1.1" id="Слой_1" xmlns="http://www.w3.org/2000/svg" xmlns:xlink="http://www.w3.org/1999/xlink" x="0px" y="0px"
	 viewBox="0 0 15 15" width="15" height="15" enable-background="new 0 0 15 15" xml:space="preserve">
<path d="M11.3,6.6V3.8C11.3,1.7,9.6,0,7.5,0S3.8,1.7,3.8,3.8v2.8c-1,0-1.9,0.8-1.9,1.9v4.7c0,1,0.8,1.9,1.9,1.9c0,0,7.5,0,7.5,0
	c1,0,1.9-0.8,1.9-1.9l0,0V8.4C13.1,7.4,12.3,6.6,11.3,6.6L11.3,6.6z M8,11.1v1.6c0,0.3-0.2,0.5-0.5,0.5c-0.3,0-0.5-0.2-0.5-0.5v-1.6
	c-0.3-0.2-0.5-0.5-0.5-0.8c-0.1-1.4,2-1.4,1.9,0C8.5,10.6,8.3,10.9,8,11.1L8,11.1z M9.4,6.6H5.6V3.8c0-1,0.8-1.9,1.9-1.9
	s1.9,0.8,1.9,1.9L9.4,6.6L9.4,6.6z"/>
</svg>
