<?xml version="1.0" encoding="utf-8"?>
<!-- Generator: Adobe Illustrator 24.1.2, SVG Export Plug-In . SVG Version: 6.00 Build 0)  -->
<svg version="1.1" id="Layer_1" xmlns="http://www.w3.org/2000/svg" xmlns:xlink="http://www.w3.org/1999/xlink" x="0px" y="0px" width="45" height="12.9"
	 viewBox="0 0 45 12.9" enable-background="new 0 0 45 12.9" xml:space="preserve">
<path fill="#010101" d="M22.5,8.2c1.2,1.7,3.6,4.4,8.8,4.7C38.4,13.2,45,7.7,45,5.6c-2.8,2.5-7.4,2.7-9.9,1.7
	c-3.8-1.5-3.1-4.5-5.9-6.4c-1.8-1.4-4.9-1.1-6.7,0.8c-1.8-1.9-4.8-2.2-6.7-0.8c-2.8,2-2.1,4.9-5.9,6.4C7.4,8.3,2.8,8.1,0,5.6
	c0,2.1,6.5,7.6,13.7,7.3C18.9,12.7,21.3,9.9,22.5,8.2L22.5,8.2z"/>
</svg>
