<?xml version="1.0" encoding="utf-8"?>
<svg version="1.1" id="Layer_1" xmlns="http://www.w3.org/2000/svg" xmlns:xlink="http://www.w3.org/1999/xlink" x="0px" y="0px"
	 viewBox="0 -0.04 94.95 94.23"  width= "94" height="94" enable-background="new 0 -0.04 94.95 94.23" xml:space="preserve">
<g>
	<g>
		<path fill="#826550" d="M90.28,28.39c-2.1-4.84-4.99-9.26-8.51-13.1c-0.65,1.26-1.31,2.52-1.98,3.78
			c2.58,3.01,4.75,6.37,6.42,10.01C87.56,28.84,88.92,28.62,90.28,28.39z"/>
	</g>
	<g>
		<path fill="#826550" d="M90.01,43.56C92.34,69.32,70.55,91.7,44.74,90.1c0.33,1.24,0.29,2.78-0.18,4
			c29.01,1.86,53.31-24.4,49.19-53.17C92.56,41.88,91.31,42.75,90.01,43.56z"/>
	</g>
	<g>
		<path fill="#826550" d="M4,47.08C3.66,14.2,40.58-6.88,68.65,9.79c1.08-0.86,2.21-1.74,3.36-2.62C41.41-12.5-0.36,10.48,0,47.08
			c0,19.81,12.3,36.78,29.66,43.72c-0.4-1.5-0.56-3.07-0.57-4.58C14.28,79.41,4,64.45,4,47.08z"/>
	</g>
	<g>
		<path fill="#826550" d="M38.77,84.91c7.74-2.72,16.31-9.66,14.54-19.83c-0.9-5.14-4.48-5-7.27-9.25
			c14.44-12,24.21-28.66,33.04-46.26c-0.66,0-1.32,0-1.98,0C69.65,15.23,55.19,26.55,48.68,36c-2.6,3.78-4.59,9.31-7.27,13.88
			c-4.54,7.75-15.12,21.23-6.61,31.06c-1.38,4.62-1.2,12.39,3.96,12.56C42.04,91.77,37.38,88.89,38.77,84.91z M47.08,46.08
			c3.41,0.09,3.41,5.08,0,5.17C43.68,51.16,43.68,46.17,47.08,46.08z M36.79,74.99c-1.86-9,7.01-16.95,11.9-9.25
			C48.94,73.16,42.5,81.51,36.79,74.99z"/>
	</g>
	<g>
		<path fill="#826550" d="M55.95,51.2c13.96-5.2,30.58-7.75,38.99-18.5c-9.41,1.38-18.12,3.47-27.76,4.63
			C65.05,43.56,60.16,47.04,55.95,51.2z"/>
	</g>
	<g>
		<path fill="#826550" d="M12.33,39.97c-4.22,12.25,8.42,15.99,21.81,13.88c3.78-4.81,5.85-9.96,1.98-15.86
			C31.23,30.52,15.22,31.61,12.33,39.97z M17.62,47.24C12.5,36.4,30.51,36.17,32.16,41.95C34.34,49.58,23.06,49.98,17.62,47.24z"/>
	</g>
</g>
</svg>
