<svg>
	<symbol id="beard" viewBox="0 0 22.1 21.2>
<path fill="#010101" d="M21.8,0c0,0-0.1,0-0.1,0c-1,3.3-1.3,7.3-4,8.8c-0.5-1.4-1.8-2.1-3.2-2.7c-1.1-0.4-2.3-1.5-3.5-1
	c-1.1-0.5-2.3,0.6-3.5,1C6.1,6.8,4.9,7.4,4.4,8.8c-2.8-1.5-3-5.6-4-8.8c0,0-0.1,0-0.1,0C0.1,0.3,0.1,0.7,0,1c0,0.8,0.2,9.2,0.8,12.2
	c0.9,4.3,6.1,7.6,10.2,8c4.2-0.4,9.3-3.7,10.2-8c0.6-3,0.8-11.4,0.8-12.2C22,0.7,21.9,0.3,21.8,0z M15.8,12
	c-0.1,0.7-0.7,1.5-1.4,1.5c-1.3,0.1-1.9-1.9-3.4-1.9c-1.4,0-2.1,1.9-3.4,1.9C5.8,13.3,6,10.6,6.9,9.6c0.5-0.5,1.2-0.4,2-0.5
	C9.8,9,10.6,8.7,11,8.3c0,0,0,0,0,0c0.5,0.5,1.2,0.7,2.1,0.8c0.8,0.1,1.5,0.1,2,0.5C15.6,10.1,16,11.2,15.8,12z"/>
	</symbol>
</svg>

<svg>
	 <symbol id="mustache" viewBox="0 0 45 12.9">
<path fill="#010101" d="M22.5,8.2c1.2,1.7,3.6,4.4,8.8,4.7C38.4,13.2,45,7.7,45,5.6c-2.8,2.5-7.4,2.7-9.9,1.7
	c-3.8-1.5-3.1-4.5-5.9-6.4c-1.8-1.4-4.9-1.1-6.7,0.8c-1.8-1.9-4.8-2.2-6.7-0.8c-2.8,2-2.1,4.9-5.9,6.4C7.4,8.3,2.8,8.1,0,5.6
	c0,2.1,6.5,7.6,13.7,7.3C18.9,12.7,21.3,9.9,22.5,8.2L22.5,8.2z"/>
	</symbol>
</svg>

<svg>
		<symbol id="scissors" viewBox="0.5 0 21 20">
			<g fill="#000" id="Page-1">
				<g id="Core" transform="translate(-127.000000, -128.000000)">
					<g id="content-cut" transform="translate(127.500000, 128.000000)">
						<path id="Shape" d="M8,4c0-2.2-1.8-4-4-4C1.8,0,0,1.8,0,4c0,2.2,1.8,4,4,4c0.6,0,1.1-0.1,1.6-0.4L8,10l-2.4,2.4
					C5.1,12.1,4.6,12,4,12c-2.2,0-4,1.8-4,4s1.8,4,4,4c2.2,0,4-1.8,4-4c0-0.6-0.1-1.1-0.4-1.6L10,12l7,7h4L7.6,5.6C7.9,5.1,8,4.6,8,4
					L8,4z M4,6C2.9,6,2,5.1,2,4c0-1.1,0.9-2,2-2c1.1,0,2,0.9,2,2C6,5.1,5.1,6,4,6L4,6z M4,18c-1.1,0-2-0.9-2-2s0.9-2,2-2
					c1.1,0,2,0.9,2,2S5.1,18,4,18L4,18z M10,9.5c0.3,0,0.5,0.2,0.5,0.5s-0.2,0.5-0.5,0.5c-0.3,0-0.5-0.2-0.5-0.5S9.7,9.5,10,9.5
					L10,9.5z M21,1h-4l-6,6l2,2L21,1L21,1z" />
					</g>
				</g>
			</g>
		</symbol>
</svg>