<?xml version="1.0" encoding="UTF-8" standalone="no"?>
<svg
   xmlns:dc="http://purl.org/dc/elements/1.1/"
   xmlns:cc="http://creativecommons.org/ns#"
   xmlns:rdf="http://www.w3.org/1999/02/22-rdf-syntax-ns#"
   xmlns:svg="http://www.w3.org/2000/svg"
   xmlns="http://www.w3.org/2000/svg"
   viewBox="0 0 492.60934 134.50267"
   height="134.50267"
   width="492.60934"
   xml:space="preserve"
   id="svg2"
   version="1.1"><metadata
     id="metadata8"><rdf:RDF><cc:Work
         rdf:about=""><dc:format>image/svg+xml</dc:format><dc:type
           rdf:resource="http://purl.org/dc/dcmitype/StillImage" /></cc:Work></rdf:RDF></metadata><defs
     id="defs6"><clipPath
       id="clipPath18"
       clipPathUnits="userSpaceOnUse"><path
         id="path16"
         d="M 0,100.877 H 369.457 V 0 H 0 Z" /></clipPath></defs><g
     transform="matrix(1.3333333,0,0,-1.3333333,0,134.50267)"
     id="g10"><g
       id="g12"><g
         clip-path="url(#clipPath18)"
         id="g14"><g
           transform="translate(114.8945,91.0918)"
           id="g20"><path
             id="path22"
             style="fill:#ffffff;fill-opacity:1;fill-rule:nonzero;stroke:none"
             d="M 0,0 2.873,4.927 C 5.474,9.409 8.792,6.774 7.013,3.422 5.645,0.855 3.626,0.069 0,0 m -3.832,-16.217 c -2.121,0 -3.799,0.479 -5.131,1.232 0.613,0.718 1.231,1.607 1.777,2.532 l 5.987,10.367 0.958,-0.103 C 8.107,-3.935 4.79,-16.217 -3.832,-16.217 M 4.96,-1.642 c 7.186,2.429 7.732,11.427 0.65,11.427 -1.948,0 -4.275,-1.369 -5.883,-4.174 l -9.58,-16.559 c -0.444,-0.787 -0.89,-1.437 -1.369,-2.019 -2.464,3.387 -1.743,8.451 1.711,10.674 l -1.437,1.813 c -7.458,-4.755 -5.269,-18.475 7.184,-18.475 10.641,10e-4 15.567,12.763 8.724,17.313" /></g><g
           transform="translate(236.1807,81.6831)"
           id="g24"><path
             id="path26"
             style="fill:#ffffff;fill-opacity:1;fill-rule:nonzero;stroke:none"
             d="m 0,0 h -0.17 c -1.163,0 -2.089,-0.958 -2.089,-2.121 0,-0.445 0.138,-0.855 0.343,-1.198 L -1.95,-3.387 c -1.676,-2.873 -5.747,-2.326 -3.626,1.369 l 2.703,4.688 1.71,2.908 C 1.334,9.82 4.756,8.144 2.601,4.449 Z m -73.08,-1.778 c -0.923,0.684 -1.506,1.778 -1.506,3.216 0,2.532 2.465,6.671 4.482,6.671 0.787,0 1.334,-0.582 1.334,-1.54 0,-0.581 -0.205,-1.3 -0.684,-2.121 z m -3.729,-3.456 c -0.788,0 -1.437,0.479 -1.437,1.369 0,0.513 0.206,1.094 0.617,1.847 l 1.266,2.189 c 0.274,-1.539 0.958,-2.874 2.258,-3.694 -0.719,-1.163 -1.813,-1.711 -2.704,-1.711 m -26.788,4.858 c -2.155,-3.386 -4.277,-4.995 -5.749,-4.995 -0.787,0 -1.23,0.547 -0.41,1.95 l 4.963,8.655 c 1.915,3.319 5.712,2.463 3.968,-0.752 z m 45.606,5.611 c 2.053,3.524 5.678,2.942 3.557,-0.752 l -0.512,-0.89 C -56.657,0.685 -58.95,0.753 -60.283,1.232 Z M 23.024,0.24 22.787,-0.034 c -1.985,-2.326 -4.347,-4.243 -6.502,-4.995 0.581,0.924 1.027,1.916 1.472,2.669 l 3.934,6.739 c 3.32,5.645 -2.052,7.527 -5.679,4.276 L 16.73,9.888 H 13.172 L 7.608,0.233 C 7.604,0.235 7.6,0.237 7.597,0.239 L 7.356,-0.035 C 5.749,-1.78 3.764,-2.635 1.985,-2.669 l 3.354,5.781 c 2.155,3.729 0.172,7.253 -3.183,7.253 -2.736,0 -4.856,-1.095 -6.91,-4.654 L -6.499,2.667 -7.951,0.181 -8.142,-0.036 c -2.565,-2.977 -5.062,-5.337 -6.637,-5.337 -0.787,0 -1.231,0.547 -0.411,1.95 l 5.132,8.998 c 1.539,2.703 0.07,4.653 -1.916,4.653 -1.539,0 -3.182,-0.855 -4.961,-2.704 l 5.68,9.888 h -3.558 L -24.736,0.197 -24.94,-0.036 c -1.299,-1.54 -2.874,-2.908 -4.278,-3.866 1.132,3.387 0.893,8.587 3.08,13.137 l -2.669,1.438 c -1.47,-2.02 -4.685,-6.672 -7.902,-10.435 l -0.239,-0.274 c -2.566,-2.977 -5.065,-5.337 -6.637,-5.337 -0.787,0 -1.232,0.547 -0.411,1.95 l 3.558,6.227 c 1.232,2.155 0.65,3.421 -0.513,4.824 l -1.985,2.394 c -0.513,0.651 -0.513,1.369 0.205,2.053 l -1.847,2.019 c -2.02,-1.813 -2.19,-3.832 -0.924,-5.474 l 0.308,-0.411 c -1.574,-2.223 -3.695,-5.234 -6.021,-7.971 l -0.238,-0.274 c -2.567,-2.977 -5.852,-5.337 -8.349,-5.337 -2.189,0 -3.489,1.368 -1.847,4.242 l 0.341,0.616 c 2.292,-0.958 6.605,-0.512 9.273,4.105 l 0.513,0.89 c 1.916,3.284 0.068,5.748 -2.841,5.748 -2.872,0 -5.165,-1.505 -6.671,-4.106 l -3.447,-5.915 -0.214,-0.244 c -1.608,-1.779 -3.626,-2.6 -5.371,-2.634 l 3.354,5.781 c 0.89,1.574 1.333,2.942 1.333,4.071 0,1.813 -1.23,3.182 -3.217,3.182 -0.853,0 -1.607,-0.308 -2.326,-0.787 l 4.518,7.835 h -3.627 l -9.975,-17.234 -0.187,-0.214 c -2.567,-2.977 -5.063,-5.337 -6.638,-5.337 -0.786,0 -1.232,0.547 -0.41,1.95 l 3.557,6.227 c 1.232,2.155 0.65,3.421 -0.512,4.824 l -1.985,2.394 c -0.513,0.651 -0.513,1.369 0.205,2.053 l -1.846,2.019 c -2.021,-1.813 -2.191,-3.832 -0.925,-5.474 l 0.309,-0.411 c -1.575,-2.223 -3.696,-5.234 -6.021,-7.971 l -0.239,-0.274 c -2.567,-2.977 -5.064,-5.337 -6.637,-5.337 -0.788,0 -1.233,0.547 -0.412,1.95 l 5.749,10.058 h -2.021 c 0.138,1.506 -1.401,3.593 -3.728,3.593 -1.916,0 -4.583,-1.505 -6.09,-4.106 l -4.994,-8.621 c -1.507,-2.635 -0.444,-5.064 2.429,-5.064 1.436,0 3.215,0.924 4.926,2.327 0.171,-1.369 1.267,-2.327 3.08,-2.327 2.941,0 6.329,3.147 9.272,6.569 1.711,1.984 3.045,3.763 5.885,7.629 l 0.478,-0.582 c 0.445,-0.582 0.615,-1.3 0.205,-2.018 l -3.763,-6.535 c -1.504,-2.635 -0.444,-5.064 2.428,-5.064 2.064,0 4.345,1.549 6.537,3.652 0,-0.008 0,-0.017 0,-0.025 0,-2.429 1.814,-3.797 4.106,-3.797 1.981,0 4.275,1.026 6.056,3.318 0.271,-0.034 0.511,-0.034 0.786,-0.034 1.321,0 3.118,0.504 4.724,1.404 -0.186,-2.568 1.677,-4.518 4.822,-4.518 4.037,0 8.039,3.147 10.981,6.569 1.712,1.984 3.045,3.763 5.885,7.629 l 0.478,-0.582 c 0.445,-0.582 0.616,-1.3 0.205,-2.018 l -3.763,-6.535 c -1.506,-2.635 -0.445,-5.064 2.428,-5.064 2.944,0 6.331,3.147 9.273,6.569 h -0.001 0.001 c 2.018,2.326 3.798,4.824 5.062,6.5 -1.401,-3.696 -0.649,-10.333 -4.036,-10.333 -1.196,0 -1.677,1.3 -1.677,1.3 l -2.224,-1.164 c 0,0 0.649,-2.874 3.9,-2.874 0.342,0 0.649,0.034 0.991,0.068 0.036,0 0.069,0.034 0.104,0.034 1.872,0.248 3.734,1.136 5.466,2.364 l -1.224,-2.124 h 3.593 l 5.404,9.408 c 5.476,6.876 7.904,5.987 6.364,3.353 l -4.619,-8.04 c -1.505,-2.635 -0.444,-5.064 2.43,-5.064 2.067,0 4.354,1.556 6.551,3.667 -0.008,-4.537 6.294,-5.422 10.145,-0.553 h 0.789 c 1.073,0 2.463,0.334 3.81,0.944 L -1.023,-14.753 H 2.569 L 13.21,3.756 c 3.968,5.406 6.467,3.421 5.543,1.813 l -5.37,-9.306 c -0.583,-1.027 -1.918,-1.334 -2.568,0 L 8.797,-4.695 c 0,0 0.649,-2.874 3.899,-2.874 h 0.206 c 5.166,0.103 8.553,3.182 11.461,6.569 -0.209,0.556 -0.824,1.104 -1.339,1.24" /></g><g
           transform="translate(11.4326,27.6016)"
           id="g28"><path
             id="path30"
             style="fill:#ffffff;fill-opacity:1;fill-rule:nonzero;stroke:none"
             d="m 0,0 -5.718,-5.716 -5.715,5.717 5.717,5.716 z" /></g><g
           transform="translate(363.4209,27.6172)"
           id="g32"><path
             id="path34"
             style="fill:#ffffff;fill-opacity:1;fill-rule:nonzero;stroke:none"
             d="m 0,0 -5.717,-5.715 -5.716,5.717 5.717,5.715 z" /></g><g
           transform="translate(46.7949,27.3965)"
           id="g36"><path
             id="path38"
             style="fill:#636466;fill-opacity:1;fill-rule:nonzero;stroke:none"
             d="m 0,0 h 2.083 v 8.324 h 3.275 v 2.084 H 0 Z" /></g><g
           transform="translate(61.6875,25.8682)"
           id="g40"><path
             id="path42"
             style="fill:#636466;fill-opacity:1;fill-rule:nonzero;stroke:none"
             d="m 0,0 v 12.685 c 0,1.794 -1.067,3.325 -2.563,4.069 0.297,-0.603 0.48,-1.271 0.48,-1.986 V 2.082 c 0,-1.416 -0.615,-2.648 -1.662,-3.511 0.924,-0.985 1.662,-2.094 1.662,-3.694 v -14.105 c 0,-2.462 -2.094,-4.556 -4.558,-4.556 H -20.2 v -2.084 h 15.642 c 2.464,0 4.558,2.094 4.558,4.556 v 14.106 c 0,1.602 -0.738,2.709 -1.662,3.695 C -0.615,-2.649 0,-1.416 0,0" /></g><g
           transform="translate(46.7949,9.5371)"
           id="g44"><path
             id="path46"
             style="fill:#636466;fill-opacity:1;fill-rule:nonzero;stroke:none"
             d="m 0,0 h 2.083 v 8.385 h 3.275 v 2.084 H 0 Z" /></g><g
           transform="translate(79.8066,9.5371)"
           id="g48"><path
             id="path50"
             style="fill:#636466;fill-opacity:1;fill-rule:nonzero;stroke:none"
             d="m 0,0 h 2.083 v 26.184 h 3.274 v 2.084 H 0 Z" /></g><g
           transform="translate(92.1357,42.623)"
           id="g52"><path
             id="path54"
             style="fill:#636466;fill-opacity:1;fill-rule:nonzero;stroke:none"
             d="M 0,0 C 0.298,-0.602 0.479,-1.27 0.479,-1.986 V -35.98 c 0,-2.463 -2.093,-4.557 -4.556,-4.557 h -11.084 c -0.718,0 -1.386,0.183 -1.987,0.48 0.744,-1.496 2.274,-2.564 4.07,-2.564 h 11.085 c 2.463,0 4.556,2.094 4.556,4.557 V -4.07 C 2.563,-2.275 1.495,-0.745 0,0" /></g><g
           transform="translate(112.8164,27.3965)"
           id="g56"><path
             id="path58"
             style="fill:#636466;fill-opacity:1;fill-rule:nonzero;stroke:none"
             d="m 0,0 h 2.083 v 8.324 h 3.276 v 2.084 H 0 Z" /></g><g
           transform="translate(125.0615,18.3535)"
           id="g60"><path
             id="path62"
             style="fill:#636466;fill-opacity:1;fill-rule:nonzero;stroke:none"
             d="m 0,0 c 1.601,0.74 2.586,2.34 2.586,4.064 v 16.135 c 0,1.817 -1.061,3.364 -2.566,4.098 0.298,-0.609 0.483,-1.285 0.483,-2.014 V 6.148 c 0,-1.724 -0.985,-3.325 -2.586,-4.064 l 3.079,-18.352 h -5.658 l 0.35,-2.084 H 3.08 Z" /></g><g
           transform="translate(115.6494,20.0059)"
           id="g64"><path
             id="path66"
             style="fill:#636466;fill-opacity:1;fill-rule:nonzero;stroke:none"
             d="m 0,0 h -2.833 v -17.92 h -5.306 v -2.084 h 7.389 v 17.92 h 1.101 z" /></g><g
           transform="translate(144.8447,9.5371)"
           id="g68"><path
             id="path70"
             style="fill:#636466;fill-opacity:1;fill-rule:nonzero;stroke:none"
             d="m 0,0 h 2.083 v 26.184 h 3.274 v 2.084 H 0 Z" /></g><g
           transform="translate(157.1729,42.623)"
           id="g72"><path
             id="path74"
             style="fill:#636466;fill-opacity:1;fill-rule:nonzero;stroke:none"
             d="M 0,0 C 0.299,-0.602 0.48,-1.27 0.48,-1.986 V -35.98 c 0,-2.463 -2.093,-4.557 -4.556,-4.557 h -11.086 c -0.717,0 -1.385,0.183 -1.985,0.48 0.743,-1.496 2.272,-2.564 4.068,-2.564 h 11.086 c 2.463,0 4.556,2.094 4.556,4.557 V -4.07 C 2.563,-2.275 1.496,-0.745 0,0" /></g><g
           transform="translate(177.8545,9.5371)"
           id="g76"><path
             id="path78"
             style="fill:#636466;fill-opacity:1;fill-rule:nonzero;stroke:none"
             d="m 0,0 h 2.083 v 26.184 h 3.275 v 2.084 H 0 Z" /></g><g
           transform="translate(190.1846,42.623)"
           id="g80"><path
             id="path82"
             style="fill:#636466;fill-opacity:1;fill-rule:nonzero;stroke:none"
             d="M 0,0 C 0.298,-0.602 0.479,-1.27 0.479,-1.986 V -35.98 c 0,-2.463 -2.093,-4.557 -4.556,-4.557 h -13.561 v -2.084 h 15.644 c 2.463,0 4.557,2.094 4.557,4.557 V -4.07 C 2.563,-2.275 1.496,-0.745 0,0" /></g><g
           transform="translate(211.2354,43.1113)"
           id="g84"><path
             id="path86"
             style="fill:#636466;fill-opacity:1;fill-rule:nonzero;stroke:none"
             d="m 0,0 v -41.025 h -5.306 v -2.084 H 2.083 V 0 Z" /></g><g
           transform="translate(244.1221,43.1113)"
           id="g88"><path
             id="path90"
             style="fill:#636466;fill-opacity:1;fill-rule:nonzero;stroke:none"
             d="m 0,0 v -41.025 h -5.905 l 0.598,-2.084 h 7.39 L 2.083,0 Z" /></g><g
           transform="translate(231.3125,20.9297)"
           id="g92"><path
             id="path94"
             style="fill:#636466;fill-opacity:1;fill-rule:nonzero;stroke:none"
             d="m 0,0 v -18.844 h -5.307 v -2.084 h 7.39 v 13.686 z" /></g><g
           transform="translate(263.5742,17.9219)"
           id="g96"><path
             id="path98"
             style="fill:#636466;fill-opacity:1;fill-rule:nonzero;stroke:none"
             d="m 0,0 h 6.107 v 2.084 h -8.19 c -0.722,0 -1.394,0.182 -1.998,0.477 C -3.342,1.047 -1.804,0 0,0" /></g><g
           transform="translate(266.4063,15.1523)"
           id="g100"><path
             id="path102"
             style="fill:#636466;fill-opacity:1;fill-rule:nonzero;stroke:none"
             d="M 0,0 -2.083,-0.486 V -5.615 H 0 Z" /></g><g
           transform="translate(276.6523,42.623)"
           id="g104"><path
             id="path106"
             style="fill:#636466;fill-opacity:1;fill-rule:nonzero;stroke:none"
             d="m 0,0 c 0.298,-0.602 0.48,-1.27 0.48,-1.986 v -8.744 l -5.368,-1.243 v -2.565 l 7.451,1.725 v 8.744 C 2.564,-2.275 1.496,-0.745 0,0" /></g><g
           transform="translate(276.6523,24.8252)"
           id="g108"><path
             id="path110"
             style="fill:#636466;fill-opacity:1;fill-rule:nonzero;stroke:none"
             d="m 0,0 c 0.298,-0.603 0.48,-1.269 0.48,-1.985 v -16.198 c 0,-2.463 -2.094,-4.556 -4.557,-4.556 h -11.085 c -0.717,0 -1.385,0.183 -1.987,0.48 0.744,-1.496 2.274,-2.564 4.07,-2.564 h 11.085 c 2.463,0 4.557,2.094 4.557,4.556 V -4.069 C 2.564,-2.274 1.497,-0.744 0,0" /></g><g
           transform="translate(264.3232,37.8047)"
           id="g112"><path
             id="path114"
             style="fill:#636466;fill-opacity:1;fill-rule:nonzero;stroke:none"
             d="m 0,0 v -10.408 h 2.083 v 8.324 H 5.359 V 0 Z" /></g><g
           transform="translate(298.0137,20.0059)"
           id="g116"><path
             id="path118"
             style="fill:#636466;fill-opacity:1;fill-rule:nonzero;stroke:none"
             d="m 0,0 h -0.679 v -17.92 h -5.306 v -2.084 H 1.404 V -4.48 Z" /></g><g
           transform="translate(313.1514,43.1113)"
           id="g120"><path
             id="path122"
             style="fill:#636466;fill-opacity:1;fill-rule:nonzero;stroke:none"
             d="m 0,0 h -2.752 l -6.228,-19.41 6.897,-21.615 h -6.006 l 0.577,-1.838 0.061,-0.246 H 0 l -6.897,21.615 z" /></g><g
           transform="translate(330.5313,43.1113)"
           id="g124"><path
             id="path126"
             style="fill:#636466;fill-opacity:1;fill-rule:nonzero;stroke:none"
             d="m 0,0 v -41.025 h -5.306 v -2.084 H 2.083 V 0 Z" /></g><g
           transform="translate(361.6572,17.9395)"
           id="g128"><path
             id="path130"
             style="fill:#636466;fill-opacity:1;fill-rule:nonzero;stroke:none"
             d="M 0,0 5.716,5.717 7.8,3.633 2.084,-2.084 Z" /></g><g
           transform="translate(9.6709,17.9238)"
           id="g132"><path
             id="path134"
             style="fill:#636466;fill-opacity:1;fill-rule:nonzero;stroke:none"
             d="M 0,0 5.717,5.717 7.801,3.633 2.084,-2.084 Z" /></g><path
           id="path136"
           style="fill:#ffffff;fill-opacity:1;fill-rule:nonzero;stroke:none"
           d="M 48.194,23.965 H 42.836 V 13.496 h 5.358 z m 0,17.798 H 42.836 V 31.356 h 5.358 z m 7.452,-9.853 c 0,-1.416 -0.616,-2.648 -1.663,-3.512 0.924,-0.984 1.663,-2.093 1.663,-3.693 V 10.602 c 0,-2.463 -2.094,-4.557 -4.558,-4.557 H 35.446 v 43.107 h 15.643 c 2.464,0 4.557,-2.031 4.557,-4.557 z" /><path
           id="path138"
           style="fill:#ffffff;fill-opacity:1;fill-rule:nonzero;stroke:none"
           d="M 81.205,41.763 H 75.848 V 13.496 h 5.357 z m 2.896,7.389 c 2.462,0 4.556,-2.031 4.556,-4.557 V 10.602 c 0,-2.464 -2.094,-4.558 -4.556,-4.558 H 73.016 c -2.526,0 -4.559,2.094 -4.559,4.558 v 33.993 c 0,2.525 2.032,4.557 4.559,4.557 z" /><path
           id="path140"
           style="fill:#ffffff;fill-opacity:1;fill-rule:nonzero;stroke:none"
           d="m 114.217,41.763 h -5.358 V 31.356 h 5.358 z m 0.491,-35.718 -3.018,17.92 h -2.833 V 6.045 h -7.389 v 43.107 h 15.642 c 2.463,0 4.495,-2.031 4.495,-4.557 V 28.46 c 0,-1.726 -0.985,-3.325 -2.585,-4.064 l 3.079,-18.351 z" /><path
           id="path142"
           style="fill:#ffffff;fill-opacity:1;fill-rule:nonzero;stroke:none"
           d="m 146.243,41.763 h -5.357 V 13.496 h 5.357 z m 2.896,7.389 c 2.463,0 4.556,-2.031 4.556,-4.557 V 10.602 c 0,-2.464 -2.093,-4.558 -4.556,-4.558 h -11.086 c -2.525,0 -4.558,2.094 -4.558,4.558 v 33.993 c 0,2.525 2.032,4.557 4.558,4.557 z" /><path
           id="path144"
           style="fill:#ffffff;fill-opacity:1;fill-rule:nonzero;stroke:none"
           d="m 179.254,41.763 h -5.357 V 13.496 h 5.357 z m 2.894,7.389 c 2.463,0 4.557,-2.031 4.557,-4.557 V 10.602 c 0,-2.464 -2.094,-4.558 -4.557,-4.558 h -15.642 v 43.108 z" /><path
           id="path146"
           style="fill:#ffffff;fill-opacity:1;fill-rule:nonzero;stroke:none"
           d="m 199.888,49.152 h 7.39 V 6.045 h -7.39 z" /><g
           transform="translate(240.1631,49.1523)"
           id="g148"><path
             id="path150"
             style="fill:#ffffff;fill-opacity:1;fill-rule:nonzero;stroke:none"
             d="m 0,0 v -43.107 h -7.39 l -5.42,18.842 V -43.107 H -20.2 V 0 h 7.328 l 5.42,-17.674 V 0 Z" /></g><g
           transform="translate(268.6172,31.3555)"
           id="g152"><path
             id="path154"
             style="fill:#ffffff;fill-opacity:1;fill-rule:nonzero;stroke:none"
             d="m 0,0 c 2.463,0 4.558,-2.033 4.558,-4.558 v -16.196 c 0,-2.464 -2.095,-4.558 -4.558,-4.558 h -11.085 c -2.524,0 -4.558,2.094 -4.558,4.558 v 8.866 l 7.39,1.726 v -7.697 h 5.358 v 10.468 h -8.19 c -2.524,0 -4.558,2.034 -4.558,4.559 v 16.071 c 0,2.526 2.032,4.558 4.558,4.558 H 0 c 2.463,0 4.558,-2.031 4.558,-4.558 V 4.496 L -2.894,2.771 v 7.636 H -8.252 L -8.252,0 Z" /></g><g
           transform="translate(300.2119,27.6602)"
           id="g156"><path
             id="path158"
             style="fill:#ffffff;fill-opacity:1;fill-rule:nonzero;stroke:none"
             d="m 0,0 6.897,-21.615 h -7.451 l -0.061,0.246 -5.543,17.674 h -0.679 v -17.92 h -7.39 v 43.107 h 7.39 V 3.695 h 0.556 l 5.666,17.797 h 7.512 z" /></g><path
           id="path160"
           style="fill:#ffffff;fill-opacity:1;fill-rule:nonzero;stroke:none"
           d="m 319.184,49.152 h 7.39 V 6.045 h -7.39 z" /></g></g></g></svg>