<?xml version="1.0" encoding="utf-8"?>
<!-- Generator: Adobe Illustrator 24.1.2, SVG Export Plug-In . SVG Version: 6.00 Build 0)  -->
<svg version="1.1" id="Слой_1" xmlns="http://www.w3.org/2000/svg" xmlns:xlink="http://www.w3.org/1999/xlink" x="0px" y="0px"
	 viewBox="0 0 15 15" width="15" height="15" enable-background="new 0 0 15 15" xml:space="preserve">
<path d="M13.3,11.5c-0.1-0.5-0.5-0.9-0.9-1.2c-0.8-0.5-1.8-0.9-2.7-1.1C9.5,9,9.3,8.9,9.1,8.8C8.9,8.7,8.8,8.5,8.8,8.3
	c0-0.1,0-0.2,0-0.3c0.7-1.1,1.1-2.3,1.1-3.6c0.2-1.2-0.6-2.3-1.8-2.4c-0.2,0-0.4,0-0.6,0C6.3,1.7,5.2,2.5,5,3.7c0,0.2,0,0.5,0,0.7
	C5,5.7,5.5,7,6.2,8.1v0.2c0,0.2-0.1,0.4-0.3,0.5C5.7,8.9,5.5,9,5.3,9.1c-0.9,0.3-1.9,0.6-2.7,1.1c-0.4,0.3-0.7,0.8-0.9,1.3
	c-0.2,0.5-0.2,1.1-0.2,1.6h12C13.5,12.6,13.5,12,13.3,11.5z"/>
</svg>
