<?xml version="1.0" encoding="utf-8"?>
<!-- Generator: Adobe Illustrator 24.1.2, SVG Export Plug-In . SVG Version: 6.00 Build 0)  -->
<svg version="1.1" id="Layer_1" xmlns="http://www.w3.org/2000/svg" xmlns:xlink="http://www.w3.org/1999/xlink" x="0px" y="0px" width="26" height = "15"
	 viewBox="0 0 26 15" enable-background="new 0 0 26 15" xml:space="preserve">
<path fill="#FFFFFF" d="M16.1,11.5c1-0.3,2.2,2,3.5,2.9c1,0.7,1.7,0.5,1.7,0.5l3.5-0.1c0,0,1.8-0.1,1-1.6c-0.1-0.1-0.5-1.1-2.6-3
	c-2.2-2-1.9-1.7,0.7-5.2c1.9-2.7,3.2-4.6,0.7-4.4l-3.9,0c-0.4,0-0.7,0.1-0.9,0.5c-0.6,1.8-5,10.4-4.7,3.4c0-2.9,0.4-4.1-0.8-4.4
	c-1-0.3-4.3-0.3-5.1,0.1C8.8,0.6,8.5,1.1,8.7,1.1c0.3,0,0.8,0.2,1.2,0.6c0.4,0.6,0.4,1.8,0.4,1.8s0.2,3.4-0.5,3.8
	C9.2,7.6,8.4,7,6.9,4.3C6.1,2.9,5.5,1.4,5.5,1.4S5.4,1.1,5.2,0.9C4.9,0.7,4.6,0.7,4.6,0.7l-3.7,0c0,0-0.6,0-0.8,0.3
	c-0.2,0.2,0,0.7,0,0.7S3,8.5,6.3,12c3,3.2,6.5,3,6.5,3h1.6c0,0,0.5-0.1,0.7-0.3c0.2-0.2,0.2-0.7,0.2-0.7S15.2,11.8,16.1,11.5z"/>
</svg>
