<svg width="30" height="30" viewBox="0 0 30 30" fill="none" xmlns="http://www.w3.org/2000/svg">
<g clip-path="url(#clip0_25489_5)">
<path d="M13.2998 6.34969C13.1184 6.183 12.8786 6.09444 12.6323 6.10319C12.3861 6.11194 12.1532 6.21729 11.984 6.39645C11.8148 6.5756 11.723 6.81416 11.7283 7.06051C11.7337 7.30686 11.8358 7.5412 12.0127 7.71282L19.7283 15L12.0127 22.2872C11.8358 22.4588 11.7337 22.6932 11.7283 22.9395C11.723 23.1859 11.8148 23.4244 11.984 23.6036C12.1532 23.7827 12.3861 23.8881 12.6323 23.8968C12.8786 23.9056 13.1184 23.817 13.2998 23.6503L21.7373 15.6816C21.8301 15.5939 21.9039 15.4882 21.9544 15.3711C22.0049 15.2539 22.0309 15.1276 22.0309 15C22.0309 14.8724 22.0049 14.7462 21.9544 14.629C21.9039 14.5118 21.8301 14.4061 21.7373 14.3184L13.2998 6.34969V6.34969Z" fill="#00C4F0"/>
<path d="M15 0C10.9936 0 7.22672 1.56047 4.39406 4.39359C1.56047 7.22672 0 10.9936 0 15C0 19.0064 1.56094 22.7733 4.39406 25.6059C7.22672 28.4395 10.9936 30 15 30C19.0064 30 22.7733 28.4395 25.6059 25.6064C28.4395 22.7733 30 19.0064 30 15C30 10.9936 28.4391 7.22672 25.6059 4.39406C22.7733 1.56047 19.0064 0 15 0ZM24.2798 24.2803C21.8011 26.7595 18.5058 28.125 15 28.125C11.4942 28.125 8.19891 26.7595 5.71969 24.2803C3.24047 21.8016 1.875 18.5058 1.875 15C1.875 11.4942 3.24047 8.19844 5.72016 5.71969C8.19891 3.24047 11.4942 1.875 15 1.875C18.5058 1.875 21.8011 3.24047 24.2803 5.71969C26.7595 8.19844 28.125 11.4942 28.125 15C28.125 18.5058 26.7595 21.8016 24.2798 24.2803Z" fill="#00C4F0"/>
</g>
<defs>
<clipPath id="clip0_25489_5">
<rect width="30" height="30" fill="white"/>
</clipPath>
</defs>
</svg>
