<svg width="52" height="59" viewBox="0 0 52 59" fill="none" xmlns="http://www.w3.org/2000/svg">
<path d="M0 0L4.71328 52.9139L25.8623 58.8108L47.0705 52.8923L51.7875 0H0V0ZM41.9958 12.1228L40.4269 29.7502L40.4316 29.8453L40.425 30.0642V30.0623L39.3103 42.3877L39.1875 43.4827L25.8937 47.1595V47.16L25.8834 47.1689L12.6127 43.4714L11.7141 33.2812H18.2217L18.6834 38.4628L25.8956 40.4175L25.8937 40.4213V40.4203L33.1327 38.438L33.8977 30H18.765L18.6352 28.5736L18.3394 25.2319L18.1842 23.4375H34.4728L35.0653 16.875H10.2562L10.1264 15.4495L9.83109 12.1069L9.67547 10.3125H42.1509L41.9958 12.1228V12.1228Z" fill="#00C4F0"/>
</svg>
