<svg width="60" height="60" viewBox="0 0 60 60" fill="none" xmlns="http://www.w3.org/2000/svg">
<path d="M4 1L8.71328 53.9139L29.8623 59.8108L51.0705 53.8923L55.7875 1H4ZM45.9958 13.1228L44.4269 30.7502L44.4316 30.8453L44.425 31.0642V31.0623L43.3103 43.3877L43.1875 44.4827L29.8937 48.1595V48.16L29.8834 48.1689L16.6127 44.4714L15.7141 34.2812H22.2217L22.6834 39.4628L29.8956 41.4175L29.8937 41.4212V41.4203L37.1327 39.438L37.8977 31H22.765L22.6352 29.5736L22.3394 26.2319L22.1842 24.4375H38.4728L39.0653 17.875H14.2562L14.1264 16.4495L13.8311 13.1069L13.6755 11.3125H46.1509L45.9958 13.1228Z" fill="#CFD8DC"/>
</svg>
