<svg width="20" height="20" viewBox="0 0 20 20" fill="none" xmlns="http://www.w3.org/2000/svg">
<path d="M10.3955 20C9.49433 20 8.58736 19.8858 7.69355 19.6551C5.01693 18.9638 2.77985 17.3095 1.39438 14.9971C0.00891778 12.6844 -0.359356 9.99041 0.358051 7.41085C1.07523 4.83151 2.79184 2.67573 5.19173 1.34061C7.17515 0.23683 9.42307 -0.197838 11.6931 0.0830513C11.983 0.119051 12.2182 0.326385 12.2807 0.601275C12.3432 0.876387 12.2196 1.1595 11.9722 1.30905C8.75686 3.25017 7.72491 7.25174 9.62277 10.4193C11.5202 13.5866 15.6328 14.7262 18.9843 13.0133C19.2419 12.8809 19.5588 12.9198 19.7744 13.1098C19.9902 13.2995 20.0592 13.5995 19.9464 13.8593C19.0641 15.894 17.5493 17.5529 15.5657 18.6562C13.9673 19.5456 12.1928 20 10.3955 20ZM9.70948 1.35572C8.37083 1.44928 7.0723 1.8335 5.88331 2.49506C3.8035 3.65217 2.31587 5.5204 1.69417 7.75596C1.07269 9.9913 1.39162 12.3264 2.59237 14.3306C3.79312 16.3349 5.7318 17.7687 8.05144 18.3673C10.3709 18.9667 12.7943 18.6587 14.8738 17.5018C16.0628 16.8402 17.0577 15.9487 17.811 14.8782C14.2258 15.788 10.3619 14.3193 8.42433 11.0858C6.48749 7.85241 7.10066 3.89284 9.70948 1.35572Z" fill="#CFD8DC"/>
</svg>
