<svg width="60" height="60" viewBox="0 0 60 60" fill="none" xmlns="http://www.w3.org/2000/svg">
<g clip-path="url(#clip0_25220_133)">
<path d="M29.9963 0C13.4325 0 1.73118e-05 13.485 1.73118e-05 30.12C-0.00675001 36.4333 1.9707 42.5891 5.65289 47.7174C9.33508 52.8457 14.5358 56.6871 20.52 58.6987C22.02 58.9762 22.5675 58.0462 22.5675 57.2475C22.5675 56.5312 22.5413 54.6375 22.5263 52.125C14.1825 53.9437 12.42 48.0862 12.42 48.0862C11.0588 44.6062 9.09002 43.68 9.09002 43.68C6.36377 41.8125 9.29252 41.85 9.29252 41.85C12.3038 42.0637 13.8863 44.955 13.8863 44.955C16.5638 49.5562 20.91 48.2287 22.62 47.4562C22.89 45.51 23.6663 44.1825 24.525 43.4288C17.865 42.6675 10.86 40.0837 10.86 28.545C10.86 25.2563 12.03 22.5675 13.95 20.46C13.6388 19.6987 12.6113 16.635 14.2425 12.4913C14.2425 12.4913 16.7625 11.6812 22.4925 15.5775C24.9403 14.9085 27.4662 14.5681 30.0038 14.565C32.5414 14.57 35.0672 14.9118 37.515 15.5813C43.2413 11.685 45.7575 12.495 45.7575 12.495C47.3925 16.6425 46.365 19.7025 46.0575 20.4637C47.9813 22.5712 49.14 25.26 49.14 28.5487C49.14 40.1175 42.1275 42.6638 35.445 43.41C36.5213 44.34 37.4813 46.1775 37.4813 48.9862C37.4813 53.0137 37.4438 56.2612 37.4438 57.2475C37.4438 58.0537 37.9838 58.9913 39.5063 58.695C45.4847 56.6786 50.6789 52.8357 54.356 47.7086C58.0331 42.5816 60.0073 36.4293 60 30.12C60 13.485 46.5675 0 29.9963 0Z" fill="#263238"/>
</g>
<defs>
<clipPath id="clip0_25220_133">
<rect width="60" height="60" fill="white"/>
</clipPath>
</defs>
</svg>
