<svg width="50" height="50" viewBox="0 0 50 50" fill="none" xmlns="http://www.w3.org/2000/svg">
<path d="M25.9063 29.8544L6.07813 17.2361C5.05305 16.5582 4.3352 15.5048 4.07916 14.3028C3.82312 13.1008 4.04938 11.8463 4.70921 10.8095C5.36904 9.77272 6.40966 9.03651 7.60699 8.75943C8.80431 8.48235 10.0626 8.68658 11.1108 9.32813L25.6577 18.5848L38.7188 9.44188C39.7378 8.75134 40.9875 8.48936 42.1981 8.71251C43.4087 8.93567 44.4829 9.62605 45.1887 10.6345C45.8945 11.643 46.1753 12.8887 45.9704 14.1025C45.7656 15.3163 45.0915 16.4008 44.0938 17.1217L25.9063 29.8544Z" fill="#EA4435"/>
<path d="M42.9688 41.4062H36.7188V13.2812C36.7188 12.038 37.2126 10.8458 38.0917 9.96669C38.9708 9.08761 40.163 8.59375 41.4062 8.59375V8.59375C42.6495 8.59375 43.8417 9.08761 44.7208 9.96669C45.5999 10.8458 46.0937 12.038 46.0938 13.2812V38.2812C46.0938 39.1101 45.7645 39.9049 45.1785 40.491C44.5924 41.077 43.7976 41.4062 42.9688 41.4062V41.4062Z" fill="#00AC47"/>
<path d="M46.0253 12.6025C46.0116 12.5088 46.0127 12.413 45.9931 12.3194C45.9631 12.1759 45.9073 12.0434 45.8645 11.905C45.823 11.7466 45.7731 11.5904 45.7148 11.4374C45.6836 11.3631 45.6355 11.298 45.6 11.2258C45.5028 11.0175 45.3903 10.8167 45.2634 10.625C45.2009 10.5342 45.1228 10.4569 45.0537 10.3709C44.9352 10.2148 44.8071 10.0661 44.6702 9.92579C44.5662 9.8247 44.4478 9.74016 44.3348 9.64907C44.2148 9.54613 44.0896 9.44929 43.9598 9.35891C43.8359 9.27798 43.7003 9.21563 43.5692 9.14657C43.4311 9.07454 43.2958 8.9961 43.152 8.9386C43.0131 8.88266 42.865 8.84704 42.7198 8.80438C42.5747 8.76173 42.4303 8.71063 42.2812 8.68298C42.0966 8.65331 41.9103 8.63453 41.7234 8.62673C41.6048 8.61845 41.4873 8.59766 41.3683 8.5986C41.1472 8.60504 40.9269 8.62724 40.7091 8.66501C40.6211 8.67813 40.5325 8.67704 40.4452 8.69516C40.1503 8.78525 39.8563 8.87796 39.5631 8.97329C39.4827 9.00766 39.4122 9.05876 39.3342 9.09751C38.5408 9.46776 37.8715 10.0599 37.4074 10.8023C36.9432 11.5448 36.704 12.4058 36.7187 13.2813V22.2844L44.0937 17.1214C44.818 16.6354 45.3858 15.9498 45.7285 15.1478C46.0713 14.3457 46.1742 13.4615 46.0248 12.6022L46.0253 12.6025Z" fill="#FFBA00"/>
<path d="M8.59375 8.59375C9.83695 8.59375 11.0292 9.08761 11.9083 9.96669C12.7874 10.8458 13.2812 12.038 13.2812 13.2812V41.4062H7.03125C6.20245 41.4062 5.40759 41.077 4.82154 40.491C4.23549 39.9049 3.90625 39.1101 3.90625 38.2812V13.2812C3.90625 12.038 4.40011 10.8458 5.27919 9.96669C6.15826 9.08761 7.35055 8.59375 8.59375 8.59375V8.59375Z" fill="#4285F4"/>
<path d="M3.97485 12.6025C3.9886 12.5088 3.98751 12.413 4.00704 12.3194C4.03704 12.1759 4.09282 12.0434 4.13564 11.905C4.17714 11.7466 4.22711 11.5905 4.28532 11.4375C4.31657 11.3633 4.3647 11.2981 4.40032 11.2259C4.49748 11.0176 4.60998 10.8167 4.73689 10.625C4.79939 10.5342 4.87751 10.4569 4.94657 10.3709C5.06504 10.2148 5.1931 10.0661 5.33001 9.92579C5.43392 9.82469 5.55235 9.74016 5.66548 9.64907C5.7855 9.54608 5.91067 9.44924 6.04048 9.35891C6.16439 9.27797 6.30001 9.21563 6.4311 9.14657C6.56658 9.06994 6.70582 9.00016 6.84829 8.9375C6.98735 8.88157 7.13548 8.84594 7.28048 8.80329C7.42548 8.76063 7.57001 8.70953 7.71907 8.68188C7.90375 8.65222 8.09001 8.63344 8.27689 8.62563C8.39564 8.61735 8.51298 8.59657 8.63204 8.5975C8.85308 8.60394 9.07338 8.62613 9.29126 8.66391C9.37923 8.67704 9.46782 8.67594 9.55532 8.69407C9.70657 8.7326 9.85572 8.77892 10.0022 8.83282C10.1495 8.87197 10.2947 8.91848 10.4374 8.97219C10.5177 9.00657 10.5881 9.05766 10.6663 9.09641C10.8688 9.19157 11.0642 9.30123 11.2509 9.42454C11.8769 9.85436 12.3889 10.4301 12.7426 11.102C13.0964 11.774 13.2812 12.5219 13.2813 13.2813V22.2844L5.90626 17.1217C5.18216 16.6355 4.61441 15.95 4.27165 15.148C3.92889 14.346 3.82581 13.4619 3.97485 12.6025V12.6025Z" fill="#C52528"/>
</svg>
