<svg width="23" height="50" viewBox="0 0 23 50" fill="none" xmlns="http://www.w3.org/2000/svg">
<g clip-path="url(#clip0_25220_137)">
<path d="M19.35 38.1646C17.2104 38.9813 14.7333 39.4542 12.1479 39.4542C11.8458 39.4542 11.5458 39.4479 11.2458 39.4354L11.2875 39.4375C11.0396 39.4479 10.7479 39.4542 10.4542 39.4542C7.82291 39.4542 5.30207 38.9813 2.97082 38.1188L3.12083 38.1667L4.58541 40.6104L5.17291 48.4292C5.17291 48.8847 5.77569 49.259 6.98124 49.5521C8.20416 49.8375 9.61041 50.0021 11.0542 50.0021C11.1521 50.0021 11.2521 50.0021 11.35 50H11.3354C11.4271 50.0021 11.5375 50.0021 11.6458 50.0021C13.0771 50.0021 14.4708 49.8417 15.8083 49.5354L15.6833 49.5604C16.8889 49.2674 17.4917 48.8931 17.4917 48.4375L17.9792 40.6188L19.35 38.1646ZM1.46458 25.6646C1.82083 24.475 2.32083 23.4354 2.95624 22.4979L2.93124 22.5375C3.54166 21.5896 4.36666 20.8271 5.33958 20.3063L5.37499 20.2896C5.61874 20.1792 5.90416 20.1146 6.20624 20.1146C6.58333 20.1146 6.93749 20.2167 7.24166 20.3917L7.23124 20.3854C7.50624 20.5292 7.73541 20.7271 7.91041 20.9667L7.91458 20.9729C8.06041 21.1313 8.16457 21.3313 8.20624 21.5521L8.20833 21.5604C8.23541 21.6375 8.24999 21.7271 8.24999 21.8208C8.24999 21.9583 8.21666 22.0875 8.15624 22.2L8.15832 22.1958C8.08541 22.3417 7.93749 22.4396 7.76666 22.4417C7.60277 22.4417 7.39096 22.2139 7.13124 21.7583C6.73958 21.0417 6.18402 20.9438 5.46457 21.4646C4.76457 21.9917 4.20208 22.6604 3.81249 23.4333L3.79791 23.4646C3.34999 24.2458 2.95416 25.1521 2.65833 26.1042L2.63124 26.2021C2.49166 26.5396 2.41249 26.9333 2.41249 27.3458C2.41249 27.6521 2.45624 27.9458 2.53957 28.225L2.53332 28.2042C2.63332 28.3813 2.81874 28.5 3.03332 28.5C3.65207 28.3771 4.17708 28.0417 4.54374 27.5771L4.54791 27.5708C5.04583 27.1 5.48124 26.5708 5.84791 25.9917L5.86874 25.9583L6.35624 24.4938C6.4868 24.1688 6.68263 24.0063 6.94374 24.0063C7.20485 24.0063 7.33541 24.1854 7.33541 24.5438C7.29166 25.1021 7.15207 25.6167 6.93124 26.0854L6.94374 26.0583C6.74166 26.5333 6.53958 27.1188 6.37916 27.7208L6.35624 27.8188L5.56874 30.3521C5.49999 30.5583 5.41666 30.7354 5.31666 30.9L5.32291 30.8875C5.26458 31.0208 5.13957 31.1167 4.99166 31.1333H4.98958C4.98541 31.1333 4.97916 31.1333 4.97291 31.1333C4.85833 31.1333 4.75624 31.075 4.69791 30.9875V30.9854C4.65208 30.875 4.62499 30.7479 4.62499 30.6146C4.62499 30.5375 4.63333 30.4625 4.64999 30.3917L4.64791 30.3979C4.86874 29.4104 5.12083 28.5729 5.42499 27.7646L5.38124 27.8979L4.69791 28.5813C4.17916 29.1646 3.46041 29.5604 2.65208 29.6646L2.63541 29.6667C2.61457 29.6688 2.59166 29.6688 2.56666 29.6688C2.30416 29.6688 2.05833 29.5958 1.84791 29.4688L1.85416 29.4729L2.63541 37.1917C2.70069 37.5167 3.54721 37.875 5.17499 38.2667C6.94583 38.7021 8.97916 38.95 11.0708 38.95H11.2417H11.2333H11.3958C13.4875 38.95 15.5208 38.7 17.4687 38.2313L17.2937 38.2667C18.8576 37.875 19.7042 37.5167 19.8333 37.1917L20.9083 28.0063L20.7125 28.1042C20.2417 28.6292 19.6917 29.0688 19.0771 29.4083L19.0458 29.425C18.8 29.5354 18.5125 29.5979 18.2104 29.5979C18.0937 29.5979 17.9792 29.5875 17.8667 29.5708L17.8792 29.5729C17.4833 29.5076 17.2854 29.3118 17.2854 28.9854C17.4896 28.2875 17.8625 27.6938 18.3583 27.2292L18.3604 27.2271L18.6542 26.7396C18.9792 26.4146 19.1417 26.1701 19.1417 26.0063C19.1417 25.8424 19.0111 25.7771 18.75 25.8104C18.4437 25.8625 18.1771 26.0021 17.9687 26.2021C17.6562 26.4896 17.3812 26.8104 17.1479 27.1604L17.1354 27.1792C16.8354 27.6146 16.5583 28.1125 16.325 28.6354L16.3021 28.6938L15.9104 29.475L14.9521 32.2083C14.8292 32.3958 14.6646 32.5438 14.4708 32.6458L14.4646 32.65C14.3958 32.6958 14.3104 32.725 14.2208 32.725C14.1312 32.725 14.0458 32.6979 13.975 32.65H13.9771C13.8646 32.575 13.7917 32.45 13.7875 32.3083L13.8854 32.0146C14.1396 31.2771 14.4042 30.6646 14.7062 30.0729L14.6667 30.1583L15.35 28.6938C15.4153 28.4326 15.4479 28.3347 15.4479 28.4C15.0667 28.8167 14.6125 29.1604 14.1062 29.4146L14.0792 29.4271C13.8708 29.5333 13.625 29.5958 13.3646 29.5958C13.2708 29.5958 13.1812 29.5875 13.0917 29.5729L13.1021 29.575C12.8562 29.5229 12.6667 29.3333 12.6146 29.0917V29.0875L12.5167 28.8917C12.1062 29.3104 11.5375 29.5708 10.9062 29.575C10.4826 29.5097 10.3715 29.0215 10.5729 28.1104C10.2104 28.9646 9.38749 29.5563 8.42499 29.575H8.42291C8.38749 29.5813 8.34583 29.5833 8.30624 29.5833C7.96874 29.5833 7.67708 29.3813 7.54583 29.0917L7.54374 29.0854C7.53541 28.9917 7.53124 28.8833 7.53124 28.7729C7.53124 28.0646 7.70833 27.3979 8.02291 26.8146L8.01249 26.8375V26.7396C8.20832 26.284 8.4361 25.7632 8.69582 25.1771C8.89166 24.7854 9.15207 24.6549 9.47707 24.7854H9.57499C9.77083 24.916 9.80346 25.1764 9.67291 25.5667L9.37916 25.9583C9.14999 26.3854 8.92083 26.9 8.72499 27.4333L8.69582 27.5229C8.56527 28.109 8.61388 28.4021 8.84166 28.4021C9.11041 28.3938 9.36249 28.3229 9.58332 28.2021L9.57499 28.2063C10.0104 27.8896 10.3583 27.4792 10.5937 27.0042L10.6021 26.9854C10.825 26.6063 11.0083 26.1667 11.1312 25.7021L11.1396 25.6646L11.3354 25.1646C11.466 24.8396 11.6125 24.6771 11.775 24.6771C11.9479 24.6792 12.1042 24.7542 12.2146 24.8708C12.3451 25.0014 12.3451 25.2292 12.2146 25.5542L11.5312 27.1167C11.3792 27.4583 11.275 27.8542 11.2396 28.2688V28.2833C11.2396 28.5444 11.4674 28.5771 11.9229 28.3813C12.1854 28.2792 12.4104 28.1479 12.6104 27.9854L12.6062 27.9896C12.6715 27.7285 13.1924 26.3278 14.1687 23.7875L15.1458 21.3438C15.2354 21.0583 15.4979 20.8542 15.8083 20.8542H15.8312H15.8292C15.9437 20.875 16.0437 20.9271 16.1229 21.0021C16.2535 21.0993 16.2861 21.2785 16.2208 21.5396L14.4562 25.7604C14.0007 26.9326 13.7229 27.6799 13.6229 28.0021C13.5229 28.3243 13.5424 28.491 13.6812 28.5021C14.1368 28.5021 14.8861 27.9465 15.9292 26.8354L16.0271 26.7375L16.3208 26.0542C16.3896 25.7167 16.525 25.4188 16.7146 25.1625L16.7104 25.1688C16.841 25.0382 16.9389 24.9729 17.0042 24.9729C17.2653 24.9729 17.3958 25.084 17.3958 25.3063V25.3208C17.3958 25.5417 17.3604 25.7563 17.2937 25.9542L17.2979 25.9396L17.7854 25.4521C18.1729 25 18.7437 24.7146 19.3812 24.7146C19.4208 24.7146 19.4625 24.7167 19.5021 24.7188H19.4958C19.9083 24.7479 20.2312 25.0896 20.2312 25.5063C20.2312 25.5229 20.2312 25.5375 20.2292 25.5542V25.5521C20.0125 26.4396 19.5667 27.2021 18.9604 27.8L18.7646 27.8979C18.6437 28.0667 18.5437 28.2604 18.475 28.4688L18.4708 28.4833C18.4708 28.5486 18.5361 28.5813 18.6667 28.5813C18.9354 28.5104 19.1667 28.3729 19.35 28.1896L21.0167 26.725L22.4812 13.4354C20.6062 14.1167 18.4417 14.5104 16.1854 14.5104C16.1312 14.5104 16.0771 14.5104 16.0208 14.5104H16.0292C14.6271 14.6042 12.9896 14.6563 11.3375 14.6563C9.68541 14.6563 8.04999 14.6021 6.42499 14.4979L6.64583 14.5083C6.59999 14.5083 6.54583 14.5083 6.48958 14.5083C4.23333 14.5083 2.06874 14.1146 0.0624919 13.3917L0.193742 13.4333L1.46458 25.6646ZM22.6708 12.5688H22.5729C22.5729 12.3076 21.9701 12.0472 20.7646 11.7875C19.3958 11.5042 17.7687 11.2958 16.1104 11.2042L16.0229 11.2L17 7.20001L22.5708 1.23751C22.7667 1.10695 22.6042 0.813894 22.0833 0.358339C21.9312 0.193755 21.7312 0.0750054 21.5042 0.0270888L21.4958 0.0250054C21.3 -0.00693902 21.1694 0.0090332 21.1042 0.0729221L15.1479 6.30834L13.8771 11.0958L11.3375 10.9958C11.1583 10.9938 10.9479 10.9917 10.7354 10.9917C8.12082 10.9917 5.54999 11.1708 3.03124 11.5167L3.32291 11.4833C1.10902 11.8083 0.0020752 12.1667 0.0020752 12.5583C0.0020752 13.2097 1.95624 13.666 5.86458 13.9271C7.50208 14.0521 9.41249 14.1229 11.3375 14.1229C13.2625 14.1229 15.1729 14.0521 17.0625 13.9125L16.8104 13.9271C20.7187 13.6688 22.6729 13.2132 22.6729 12.5604L22.6708 12.5688ZM15.8375 13.0563C15.8375 13.1215 15.7069 13.2035 15.4458 13.3021C15.1875 13.3958 14.8875 13.45 14.575 13.45C14.5542 13.45 14.5333 13.45 14.5146 13.45H14.5167C14.5 13.45 14.4792 13.45 14.4583 13.45C14.1458 13.45 13.8479 13.3958 13.5687 13.2979L13.5875 13.3042C13.3264 13.2069 13.1958 13.125 13.1958 13.0583C13.1958 12.9917 13.2937 12.9264 13.4896 12.8625L13.3917 12.9604C13.3917 13.091 13.75 13.1563 14.4667 13.1563C15.1833 13.1563 15.5417 13.091 15.5417 12.9604L15.6396 12.8625C15.766 12.9236 15.8292 12.9861 15.8292 13.05L15.8375 13.0563Z" fill="#263238"/>
</g>
<defs>
<clipPath id="clip0_25220_137">
<rect width="22.9167" height="50" fill="white"/>
</clipPath>
</defs>
</svg>
