<svg width="60" height="60" viewBox="0 0 60 60" fill="none" xmlns="http://www.w3.org/2000/svg">
<path d="M3.83405 0.329712L8.59041 53.6778L29.9341 59.6032L51.3371 53.6699L56.0987 0.329712H3.83405ZM46.1777 12.9899L45.8793 16.3065L45.7483 17.7772H45.7272H29.9664H29.944H20.7105L21.3085 24.4771H29.944H29.9664H43.3898H45.1529L44.9935 26.2342L43.4557 43.4597L43.3576 44.5648L29.9664 48.2767V48.278L29.9361 48.2865L16.5331 44.5661L15.6163 34.2927H18.6432H22.1838L22.6494 39.5108L29.9361 41.4787L29.942 41.4773V41.4767L37.2392 39.5068L37.9986 31.0208H29.9664H29.944H15.3245L13.7162 12.9905L13.5595 11.2354H29.9433H29.9664H46.3338L46.1777 12.9899Z" fill="#00C4F0"/>
</svg>
