<svg width="60" height="60" viewBox="0 0 60 60" fill="none" xmlns="http://www.w3.org/2000/svg">
<path d="M0.720001 1.25623V59.9362H59.4V1.25623H0.720001ZM31.3463 51.4537C30.4819 53.2106 28.83 54.3656 26.9175 54.9225C23.9775 55.5975 21.1669 55.2131 19.0744 53.9569C17.6738 53.0981 16.5806 51.7762 15.84 50.2537C17.3288 49.3444 18.8138 48.4294 20.3025 47.52C20.3419 47.5369 20.4581 47.7487 20.6156 48.0225C21.1838 48.9768 21.675 49.6519 22.6406 50.1244C23.5894 50.4469 25.6688 50.655 26.4731 48.9862C26.9644 48.1387 26.8069 45.3562 26.8069 42.3393C26.8069 37.5975 26.8294 32.9344 26.8294 28.1344H32.3175C32.3175 33.1744 32.3456 38.2275 32.3175 43.26C32.3287 46.3444 32.5969 49.1475 31.3463 51.4519V51.4537ZM54.1162 49.9031C52.2094 56.43 41.5706 56.6419 37.3219 52.3294C36.4238 51.315 35.8613 50.7843 35.325 49.6125C37.5844 48.3131 37.5844 48.3131 39.7819 47.0419C40.9762 48.8775 42.0806 49.8862 44.0663 50.2987C46.7606 50.6269 49.4719 49.7025 48.8644 46.8412C48.24 44.5031 43.3481 43.935 40.0181 41.4356C36.6375 39.165 35.8463 33.6487 38.6231 30.4968C39.5494 29.3306 41.1281 28.4606 42.7838 28.0425L44.5125 27.8194C47.8312 27.7519 49.9069 28.6275 51.4294 30.33C51.8531 30.7594 52.1981 31.2225 52.8469 32.2275C51.0787 33.3543 51.0844 33.3431 48.5512 34.9837C48.0094 33.8175 47.1131 33.0862 46.1644 32.7693C44.6925 32.3231 42.8344 32.8087 42.45 34.365C42.3169 34.845 42.345 35.2912 42.5569 36.0825C43.1531 37.4437 45.1556 38.0344 46.9519 38.8594C52.1231 40.9575 53.8687 43.2037 54.2981 45.8812C54.7106 48.1856 54.1969 49.68 54.12 49.9031H54.1162Z" fill="#CFD8DC"/>
</svg>
