<svg width="60" height="59" viewBox="0 0 60 59" fill="none" xmlns="http://www.w3.org/2000/svg">
<path d="M0.720001 0.256226V58.9362H59.4V0.256226H0.720001ZM31.3463 50.4537C30.4819 52.2106 28.83 53.3656 26.9175 53.9225C23.9775 54.5975 21.1669 54.2131 19.0744 52.9569C17.6738 52.0981 16.5806 50.7762 15.84 49.2537C17.3288 48.3444 18.8138 47.4294 20.3025 46.52C20.3419 46.5369 20.4581 46.7487 20.6156 47.0225C21.1838 47.9768 21.675 48.6519 22.6406 49.1244C23.5894 49.4469 25.6688 49.655 26.4731 47.9862C26.9644 47.1387 26.8069 44.3562 26.8069 41.3393C26.8069 36.5975 26.8294 31.9344 26.8294 27.1344H32.3175C32.3175 32.1744 32.3456 37.2275 32.3175 42.26C32.3287 45.3444 32.5969 48.1475 31.3463 50.4519V50.4537ZM54.1162 48.9031C52.2094 55.43 41.5706 55.6419 37.3219 51.3294C36.4238 50.315 35.8613 49.7843 35.325 48.6125C37.5844 47.3131 37.5844 47.3131 39.7819 46.0419C40.9762 47.8775 42.0806 48.8862 44.0663 49.2987C46.7606 49.6269 49.4719 48.7025 48.8644 45.8412C48.24 43.5031 43.3481 42.935 40.0181 40.4356C36.6375 38.165 35.8463 32.6487 38.6231 29.4968C39.5494 28.3306 41.1281 27.4606 42.7838 27.0425L44.5125 26.8194C47.8312 26.7519 49.9069 27.6275 51.4294 29.33C51.8531 29.7594 52.1981 30.2225 52.8469 31.2275C51.0787 32.3543 51.0844 32.3431 48.5512 33.9837C48.0094 32.8175 47.1131 32.0862 46.1644 31.7693C44.6925 31.3231 42.8344 31.8087 42.45 33.365C42.3169 33.845 42.345 34.2912 42.5569 35.0825C43.1531 36.4437 45.1556 37.0344 46.9519 37.8594C52.1231 39.9575 53.8687 42.2037 54.2981 44.8812C54.7106 47.1856 54.1969 48.68 54.12 48.9031H54.1162Z" fill="#00C4F0"/>
</svg>
