<svg width="20" height="20" viewBox="0 0 20 20" fill="none" xmlns="http://www.w3.org/2000/svg">
<path d="M15.1111 9.99985C15.1111 12.8181 12.8185 15.111 10 15.111C7.1818 15.111 4.88892 12.8181 4.88892 9.99985C4.88892 7.18141 7.1818 4.88874 10 4.88874C12.8185 4.88874 15.1111 7.18141 15.1111 9.99985ZM6.22225 9.99985C6.22225 12.083 7.91692 13.7776 10 13.7776C12.0831 13.7776 13.7778 12.083 13.7778 9.99985C13.7778 7.91674 12.0831 6.22207 10 6.22207C7.91692 6.22207 6.22225 7.91674 6.22225 9.99985Z" fill="#263238"/>
<path d="M3.90133 9.99996C3.90133 10.3682 3.60289 10.6666 3.23467 10.6666H0.666667C0.298444 10.6666 0 10.3682 0 9.99996C0 9.63174 0.298444 9.33329 0.666667 9.33329H3.23467C3.60267 9.33329 3.90133 9.63174 3.90133 9.99996Z" fill="#263238"/>
<path d="M20 9.99996C20 10.3682 19.7016 10.6666 19.3334 10.6666H16.7654C16.3971 10.6666 16.0987 10.3682 16.0987 9.99996C16.0987 9.63174 16.3971 9.33329 16.7654 9.33329H19.3334C19.7016 9.33329 20 9.63174 20 9.99996Z" fill="#263238"/>
<path d="M10.6666 16.7653V19.3333C10.6666 19.7016 10.3682 20 9.99998 20C9.63176 20 9.33331 19.7016 9.33331 19.3333V16.7653C9.33331 16.3971 9.63176 16.0987 9.99998 16.0987C10.3682 16.0987 10.6666 16.3973 10.6666 16.7653Z" fill="#263238"/>
<path d="M10.6666 0.666701V3.2347C10.6666 3.60292 10.3682 3.90137 9.99998 3.90137C9.63176 3.90137 9.33331 3.60292 9.33331 3.2347V0.666701C9.33331 0.298479 9.63176 3.40939e-05 9.99998 3.40939e-05C10.3682 3.40939e-05 10.6666 0.298479 10.6666 0.666701Z" fill="#263238"/>
<path d="M5.88285 5.21627C5.88285 5.38693 5.81774 5.55738 5.68774 5.6876C5.4273 5.94805 5.0053 5.94805 4.74485 5.6876L2.92908 3.87182C2.66863 3.61138 2.66885 3.1896 2.92908 2.92916C3.18952 2.66871 3.61152 2.66871 3.87196 2.92916L5.68774 4.74493C5.81774 4.87493 5.88285 5.0456 5.88285 5.21627Z" fill="#263238"/>
<path d="M17.2662 16.5996C17.2662 16.7702 17.2011 16.9409 17.0709 17.0709C16.8107 17.3313 16.3885 17.3313 16.1282 17.0709L14.3125 15.2551C14.052 14.9949 14.052 14.5727 14.3125 14.3125C14.5727 14.052 14.9949 14.052 15.2551 14.3125L17.0709 16.1282C17.2011 16.2585 17.2662 16.4291 17.2662 16.5996Z" fill="#263238"/>
<path d="M5.88285 14.7838C5.88285 14.9545 5.81774 15.1251 5.68774 15.2551L3.87196 17.0709C3.61152 17.3313 3.18952 17.3313 2.92908 17.0709C2.66863 16.8105 2.66885 16.3882 2.92908 16.128L4.74485 14.3122C5.0053 14.0518 5.4273 14.0518 5.68774 14.3122C5.81774 14.4427 5.88285 14.6133 5.88285 14.7838Z" fill="#263238"/>
<path d="M17.2662 3.40049C17.2662 3.57116 17.2011 3.7416 17.0709 3.87182L15.2551 5.6876C14.9949 5.94805 14.5727 5.94805 14.3125 5.6876C14.052 5.42716 14.052 5.00538 14.3125 4.74493L16.1282 2.92916C16.3885 2.66871 16.8107 2.66871 17.0709 2.92916C17.2011 3.05938 17.2662 3.22982 17.2662 3.40049Z" fill="#263238"/>
</svg>
