<svg width="50" height="50" viewBox="0 0 50 50" fill="none" xmlns="http://www.w3.org/2000/svg">
<path d="M50 25C50 38.8066 38.8066 50 25 50C11.1933 50 0 38.8066 0 25C0 11.1933 11.1933 0 25 0C38.8066 0 50 11.1933 50 25Z" fill="#0A7BBA"/>
<path d="M39.936 27.0106V37.3182H33.9607V27.7025C33.9607 25.2872 33.099 23.6378 30.9338 23.6378C29.2845 23.6378 28.303 24.7497 27.87 25.8247C27.7112 26.2077 27.672 26.7408 27.672 27.2805V37.3183H21.6946C21.6946 37.3183 21.7751 21.031 21.6946 19.3449H27.672V21.8927C27.6612 21.9123 27.6438 21.9316 27.6328 21.9512H27.672V21.8927C28.4663 20.67 29.8828 18.9225 33.0576 18.9225C36.9897 18.9225 39.936 21.4923 39.936 27.0106V27.0106ZM15.4452 10.6819C13.3997 10.6819 12.0637 12.0245 12.0637 13.7871C12.0637 15.5126 13.3606 16.892 15.3669 16.892H15.4039C17.4885 16.892 18.7854 15.5127 18.7854 13.7871C18.7462 12.0246 17.4885 10.6819 15.4452 10.6819V10.6819ZM12.4184 37.3183H18.3915V19.3449H12.4184V37.3183V37.3183Z" fill="#F2F2F2"/>
</svg>
