<svg width="64" height="64" viewBox="0 0 64 64" fill="none" xmlns="http://www.w3.org/2000/svg">
<path d="M34.92 47.26L37.74 56.02L26.41 55.86L28.5 47.58L34.92 47.26Z" fill="#CFD8DC"/>
<path d="M53.05 8.15002H11.11C9.47526 8.15002 8.15002 9.47526 8.15002 11.11V38.11C8.15002 39.7448 9.47526 41.07 11.11 41.07H53.05C54.6848 41.07 56.01 39.7448 56.01 38.11V11.11C56.01 9.47526 54.6848 8.15002 53.05 8.15002Z" fill="#CFD8DC"/>
<path d="M56.01 14H8.15002V41.07H56.01V14Z" fill="#CFD8DC"/>
<path d="M53.05 41.0699H11.11C9.47526 41.0699 8.15002 42.3952 8.15002 44.0299V44.2199C8.15002 45.8547 9.47526 47.1799 11.11 47.1799H53.05C54.6848 47.1799 56.01 45.8547 56.01 44.2199V44.0299C56.01 42.3952 54.6848 41.0699 53.05 41.0699Z" fill="#CFD8DC"/>
<path d="M53.06 48.27H10.94C9.89505 48.27 8.89289 47.8549 8.154 47.116C7.41511 46.3771 7 45.375 7 44.33V41.45C7 41.1848 7.10536 40.9304 7.29289 40.7429C7.48043 40.5554 7.73478 40.45 8 40.45H56C56.2652 40.45 56.5196 40.5554 56.7071 40.7429C56.8946 40.9304 57 41.1848 57 41.45V44.33C57 45.375 56.5849 46.3771 55.846 47.116C55.1071 47.8549 54.105 48.27 53.06 48.27ZM9 42.45V44.33C9 44.8445 9.20439 45.338 9.56821 45.7018C9.93203 46.0656 10.4255 46.27 10.94 46.27H53.06C53.3148 46.27 53.567 46.2198 53.8024 46.1223C54.0378 46.0248 54.2516 45.8819 54.4318 45.7018C54.6119 45.5216 54.7548 45.3078 54.8523 45.0724C54.9498 44.837 55 44.5848 55 44.33V42.45H9ZM56 31.25C55.7348 31.25 55.4804 31.1446 55.2929 30.9571C55.1054 30.7696 55 30.5152 55 30.25V10.94C55 10.4255 54.7956 9.93203 54.4318 9.56821C54.068 9.20439 53.5745 9 53.06 9H10.94C10.4255 9 9.93203 9.20439 9.56821 9.56821C9.20439 9.93203 9 10.4255 9 10.94V14C9 14.2652 8.89464 14.5196 8.70711 14.7071C8.51957 14.8946 8.26522 15 8 15C7.73478 15 7.48043 14.8946 7.29289 14.7071C7.10536 14.5196 7 14.2652 7 14V10.94C7.01549 9.89987 7.43557 8.90669 8.17113 8.17113C8.90669 7.43557 9.89987 7.01549 10.94 7H53.06C54.1001 7.01549 55.0933 7.43557 55.8289 8.17113C56.5644 8.90669 56.9845 9.89987 57 10.94V30.25C57 30.5152 56.8946 30.7696 56.7071 30.9571C56.5196 31.1446 56.2652 31.25 56 31.25Z" fill="#00C4F0"/>
<path d="M56 42.45H8C7.73478 42.45 7.48043 42.3447 7.29289 42.1571C7.10536 41.9696 7 41.7153 7 41.45V21.79C7 21.5248 7.10536 21.2705 7.29289 21.0829C7.48043 20.8954 7.73478 20.79 8 20.79C8.26522 20.79 8.51957 20.8954 8.70711 21.0829C8.89464 21.2705 9 21.5248 9 21.79V40.45H55V37.36C55 37.0948 55.1054 36.8405 55.2929 36.6529C55.4804 36.4654 55.7348 36.36 56 36.36C56.2652 36.36 56.5196 36.4654 56.7071 36.6529C56.8946 36.8405 57 37.0948 57 37.36V41.45C57 41.7153 56.8946 41.9696 56.7071 42.1571C56.5196 42.3447 56.2652 42.45 56 42.45ZM37.82 57H26.18C26.0248 57 25.8716 56.9639 25.7328 56.8945C25.5939 56.825 25.4731 56.7242 25.38 56.6C25.2884 56.477 25.2263 56.3346 25.1986 56.1837C25.1708 56.0328 25.1782 55.8776 25.22 55.73L27.71 47C27.7705 46.7837 27.902 46.5941 28.0834 46.4617C28.2648 46.3292 28.4856 46.2617 28.71 46.27H35.37C35.5944 46.2617 35.8152 46.3292 35.9966 46.4617C36.178 46.5941 36.3095 46.7837 36.37 47L37.21 49.92C37.2829 50.176 37.2512 50.4504 37.1218 50.6829C36.9924 50.9155 36.7759 51.0871 36.52 51.16C36.2641 51.233 35.9896 51.2012 35.7571 51.0718C35.5246 50.9424 35.3529 50.726 35.28 50.47L34.66 48.27H29.42L27.51 55H36.51L36.15 53.71C36.1132 53.584 36.1017 53.4519 36.1159 53.3214C36.1302 53.1908 36.17 53.0644 36.2332 52.9492C36.3607 52.7167 36.5754 52.5443 36.83 52.47C36.9567 52.4335 37.0894 52.4223 37.2205 52.4372C37.3515 52.4521 37.4783 52.4928 37.5936 52.557C37.7089 52.6211 37.8103 52.7074 37.892 52.8109C37.9738 52.9144 38.0343 53.0331 38.07 53.16L38.8 55.73C38.8418 55.8776 38.8492 56.0328 38.8214 56.1837C38.7937 56.3346 38.7316 56.477 38.64 56.6C38.5448 56.727 38.4209 56.8294 38.2783 56.899C38.1357 56.9686 37.9786 57.0032 37.82 57Z" fill="#00C4F0"/>
<path d="M12.5 45.5H11.5C11.2348 45.5 10.9804 45.3946 10.7929 45.2071C10.6054 45.0196 10.5 44.7652 10.5 44.5C10.5 44.2348 10.6054 43.9804 10.7929 43.7929C10.9804 43.6054 11.2348 43.5 11.5 43.5H12.5C12.7652 43.5 13.0196 43.6054 13.2071 43.7929C13.3946 43.9804 13.5 44.2348 13.5 44.5C13.5 44.7652 13.3946 45.0196 13.2071 45.2071C13.0196 45.3946 12.7652 45.5 12.5 45.5ZM28.5 45.5H15.5C15.2348 45.5 14.9804 45.3946 14.7929 45.2071C14.6054 45.0196 14.5 44.7652 14.5 44.5C14.5 44.2348 14.6054 43.9804 14.7929 43.7929C14.9804 43.6054 15.2348 43.5 15.5 43.5H28.5C28.7652 43.5 29.0196 43.6054 29.2071 43.7929C29.3946 43.9804 29.5 44.2348 29.5 44.5C29.5 44.7652 29.3946 45.0196 29.2071 45.2071C29.0196 45.3946 28.7652 45.5 28.5 45.5ZM52.5 45.5H52.3C52.2374 45.4891 52.1767 45.4688 52.12 45.44L51.94 45.35L51.79 45.23C51.699 45.1349 51.6276 45.0228 51.58 44.9C51.5288 44.7798 51.5016 44.6507 51.5 44.52C51.4956 44.4534 51.4956 44.3866 51.5 44.32C51.5109 44.2574 51.5312 44.1967 51.56 44.14C51.5819 44.0763 51.6122 44.0157 51.65 43.96L51.77 43.81L51.92 43.69L52.1 43.6C52.1567 43.5712 52.2174 43.5509 52.28 43.54C52.475 43.5019 52.6769 43.5228 52.86 43.6C52.9828 43.6476 53.0949 43.719 53.19 43.81C53.233 43.8575 53.2731 43.9076 53.31 43.96C53.3478 44.0157 53.3781 44.0763 53.4 44.14C53.4288 44.1967 53.4491 44.2574 53.46 44.32C53.4644 44.3866 53.4644 44.4534 53.46 44.52C53.46 44.7852 53.3546 45.0396 53.1671 45.2271C52.9796 45.4146 52.7252 45.52 52.46 45.52L52.5 45.5Z" fill="#76FF03"/>
<path d="M49.5 45.5C49.3014 45.5012 49.1069 45.4432 48.9414 45.3333C48.7759 45.2235 48.6468 45.0669 48.5706 44.8835C48.4945 44.7001 48.4747 44.4981 48.5137 44.3033C48.5528 44.1086 48.649 43.9299 48.79 43.79C48.8851 43.699 48.9973 43.6276 49.12 43.58C49.3021 43.5034 49.5028 43.4825 49.6968 43.5199C49.8908 43.5573 50.0694 43.6513 50.21 43.79C50.3927 43.9817 50.4963 44.2353 50.5 44.5C50.4984 44.6307 50.4713 44.7598 50.42 44.88C50.3724 45.0028 50.3011 45.1149 50.21 45.21C50.0184 45.3928 49.7648 45.4963 49.5 45.5V45.5Z" fill="#76FF03"/>
<path d="M32 12.56C31.8693 12.5585 31.7402 12.5313 31.62 12.48C31.4959 12.4351 31.3832 12.3635 31.2899 12.2702C31.1966 12.1768 31.1249 12.0641 31.08 11.94C31.0288 11.8198 31.0016 11.6907 31 11.56C31.0037 11.2953 31.1073 11.0417 31.29 10.85C31.3872 10.7617 31.4988 10.6907 31.62 10.64C31.8031 10.5629 32.005 10.542 32.2 10.58L32.38 10.64L32.56 10.73L32.71 10.85L32.83 11C32.8679 11.0558 32.8981 11.1163 32.92 11.18C32.9488 11.2367 32.9691 11.2974 32.98 11.36C32.9849 11.4266 32.9849 11.4935 32.98 11.56C32.9834 11.6912 32.956 11.8214 32.9 11.94C32.8494 12.0612 32.7783 12.1728 32.69 12.27L32.54 12.39L32.36 12.48L32.18 12.54L32 12.56ZM20.71 37.17H12.82C12.5548 37.17 12.3004 37.0647 12.1129 36.8772C11.9254 36.6896 11.82 36.4353 11.82 36.17C11.82 35.9048 11.9254 35.6505 12.1129 35.4629C12.3004 35.2754 12.5548 35.17 12.82 35.17H20.71C20.9752 35.17 21.2296 35.2754 21.4171 35.4629C21.6047 35.6505 21.71 35.9048 21.71 36.17C21.71 36.4353 21.6047 36.6896 21.4171 36.8772C21.2296 37.0647 20.9752 37.17 20.71 37.17ZM17.71 31.92H12.82C12.5548 31.92 12.3004 31.8147 12.1129 31.6272C11.9254 31.4396 11.82 31.1853 11.82 30.92C11.82 30.6548 11.9254 30.4005 12.1129 30.2129C12.3004 30.0254 12.5548 29.92 12.82 29.92H17.71C17.9752 29.92 18.2296 30.0254 18.4171 30.2129C18.6047 30.4005 18.71 30.6548 18.71 30.92C18.71 31.1853 18.6047 31.4396 18.4171 31.6272C18.2296 31.8147 17.9752 31.92 17.71 31.92Z" fill="#76FF03"/>
<path d="M21.13 10.6899H11.89C11.4095 10.6899 11.02 11.0795 11.02 11.5599V11.5699C11.02 12.0504 11.4095 12.4399 11.89 12.4399H21.13C21.6105 12.4399 22 12.0504 22 11.5699V11.5599C22 11.0795 21.6105 10.6899 21.13 10.6899Z" fill="#76FF03"/>
<path d="M51.63 16.84H42.39C41.9095 16.84 41.52 17.2295 41.52 17.71V17.72C41.52 18.2005 41.9095 18.59 42.39 18.59H51.63C52.1105 18.59 52.5 18.2005 52.5 17.72V17.71C52.5 17.2295 52.1105 16.84 51.63 16.84Z" fill="#76FF03"/>
<path d="M51.63 19.91H47.57C47.0895 19.91 46.7 20.2995 46.7 20.78V20.79C46.7 21.2705 47.0895 21.66 47.57 21.66H51.63C52.1105 21.66 52.5 21.2705 52.5 20.79V20.78C52.5 20.2995 52.1105 19.91 51.63 19.91Z" fill="#76FF03"/>
<path d="M26.9058 30.324C26.6435 30.3229 26.3921 30.2188 26.2058 30.034L22.2958 26.124C22.2021 26.0311 22.1277 25.9205 22.0769 25.7986C22.0261 25.6768 22 25.5461 22 25.414C22 25.282 22.0261 25.1513 22.0769 25.0295C22.1277 24.9076 22.2021 24.797 22.2958 24.704L26.4658 20.534C26.6532 20.3478 26.9066 20.2433 27.1708 20.2433C27.435 20.2433 27.6884 20.3478 27.8758 20.534C28.0621 20.7214 28.1666 20.9749 28.1666 21.239C28.1666 21.5032 28.0621 21.7567 27.8758 21.944L24.4158 25.414L27.6158 28.624C27.802 28.8114 27.9066 29.0649 27.9066 29.329C27.9066 29.5932 27.802 29.8467 27.6158 30.034C27.5224 30.1267 27.4115 30.2 27.2897 30.2498C27.1679 30.2996 27.0374 30.3248 26.9058 30.324ZM37.2658 30.324C37.1342 30.3248 37.0037 30.2996 36.8819 30.2498C36.7601 30.2 36.6492 30.1267 36.5558 30.034C36.3695 29.8467 36.265 29.5932 36.265 29.329C36.265 29.0649 36.3695 28.8114 36.5558 28.624L39.7558 25.414L36.2958 21.944C36.1095 21.7567 36.005 21.5032 36.005 21.239C36.005 20.9749 36.1095 20.7214 36.2958 20.534C36.4832 20.3478 36.7366 20.2433 37.0008 20.2433C37.265 20.2433 37.5184 20.3478 37.7058 20.534L41.8758 24.704C41.9695 24.797 42.0439 24.9076 42.0947 25.0295C42.1455 25.1513 42.1716 25.282 42.1716 25.414C42.1716 25.5461 42.1455 25.6768 42.0947 25.7986C42.0439 25.9205 41.9695 26.0311 41.8758 26.124L37.9658 30.034C37.7795 30.2188 37.5281 30.3229 37.2658 30.324ZM29.6158 32.884C29.4847 32.8863 29.3548 32.859 29.2358 32.804C28.9926 32.7023 28.7994 32.5086 28.6983 32.2652C28.5972 32.0217 28.5963 31.7482 28.6958 31.504C34.5158 17.504 34.6958 17.384 35.0158 17.164C35.2363 17.0193 35.505 16.9675 35.7634 17.02C36.0219 17.0724 36.2492 17.2248 36.3958 17.444C36.5141 17.6124 36.5776 17.8132 36.5776 18.019C36.5776 18.2249 36.5141 18.4257 36.3958 18.594C35.9258 19.454 32.5958 27.384 30.5658 32.264C30.4889 32.4514 30.3569 32.6111 30.1872 32.7218C30.0176 32.8325 29.8183 32.8891 29.6158 32.884Z" fill="#76FF03"/>
</svg>
