<svg width="50" height="50" viewBox="0 0 50 50" fill="none" xmlns="http://www.w3.org/2000/svg">
<path d="M25 50C38.8071 50 50 38.8071 50 25C50 11.1929 38.8071 0 25 0C11.1929 0 0 11.1929 0 25C0 38.8071 11.1929 50 25 50Z" fill="url(#paint0_linear_25426_70)"/>
<path fill-rule="evenodd" clip-rule="evenodd" d="M28.8975 31.2305C28.4812 31.4948 27.9602 31.5328 27.51 31.3318C26.6175 30.8368 24.99 29.6555 22.7325 27.398C20.475 25.1405 19.1887 23.4042 18.69 22.523C18.4889 22.0728 18.5269 21.5517 18.7912 21.1355L20.0887 18.863C20.5537 18.0568 20.6587 17.5468 20.1525 16.763L16.8187 11.6593C15.87 10.1593 15.3862 10.2268 14.5687 10.6018C10.3162 12.5368 8.65498 15.2742 14.6887 24.803C16.3162 27.3717 21.2887 32.8093 25.53 35.5618C34.6125 41.4605 37.6012 39.6868 39.375 35.5618C39.75 34.7293 39.915 34.2455 38.4862 33.3118L33.3262 30.0305C32.5425 29.528 32.16 29.3968 31.35 29.8655L28.8975 31.2305Z" fill="white"/>
<defs>
<linearGradient id="paint0_linear_25426_70" x1="25" y1="0" x2="25" y2="50" gradientUnits="userSpaceOnUse">
<stop stop-color="#86FC6F"/>
<stop offset="1" stop-color="#0CD419"/>
</linearGradient>
</defs>
</svg>
