<svg width="60" height="60" viewBox="0 0 60 60" fill="none" xmlns="http://www.w3.org/2000/svg">
<path fill-rule="evenodd" clip-rule="evenodd" d="M18.5721 43.7258C16.5759 45.8359 16.0174 48.4848 17.1317 49.1308C18.1631 49.7295 20.5689 49.0189 22.2911 47.1406C22.8556 46.5248 23.3166 45.8576 23.6597 45.145C23.7282 45.0028 23.7921 44.8579 23.8514 44.7117C23.9106 44.5655 23.9653 44.4173 24.0147 44.2678C24.4599 42.921 24.5073 41.4332 24.0766 39.8387C23.985 39.8895 23.8942 39.9382 23.8052 39.9863L23.8099 39.9955C23.8105 39.9955 20.7197 41.4556 18.5721 43.7258Z" fill="#CFD8DC"/>
<path fill-rule="evenodd" clip-rule="evenodd" d="M29.9664 0.329712C13.5984 0.329712 0.329674 13.5984 0.329674 29.9664C0.329674 46.3345 13.5984 59.6032 29.9664 59.6032C46.3344 59.6032 59.6031 46.3345 59.6031 29.9664C59.6031 13.5984 46.3344 0.329712 29.9664 0.329712ZM39.6293 26.6076C34.4916 28.5946 30.2437 28.2804 28.4984 27.7075C26.5147 27.0561 25.351 25.7481 25.0678 25.0099C24.9565 24.7207 24.7642 24.2353 25.0678 24.0667C25.2542 23.9634 25.3286 23.9884 25.8271 24.5383C26.3013 25.0606 28.206 26.4627 31.8243 26.057C41.3212 24.9927 47.0411 17.6132 45.2339 13.6432C43.9688 10.8639 36.6478 9.60996 27.5033 14.1668C16.3401 19.7292 15.7342 24.3157 15.6393 26.057C15.3772 30.8476 21.5515 33.3681 24.8919 36.9317C24.9703 37.0154 25.0467 37.1003 25.1211 37.1853C26.1321 36.8092 27.5309 36.5978 29.7556 36.559C35.1581 36.4661 38.2094 40.0278 38.0842 43.2114C37.9861 45.7193 35.6836 46.752 35.2556 46.8245C34.9447 46.8771 34.7761 46.8864 34.732 46.6427C34.701 46.4747 34.8123 46.397 35.1772 46.1711C35.542 45.9459 36.632 45.199 36.827 43.8404C37.0219 42.4817 36.0017 39.2355 30.8035 38.6283C28.9614 38.4129 27.5112 38.5598 26.2677 38.8884C27.1693 40.876 27.3419 44.8711 25.2673 47.9658C23.1177 51.1718 19.118 53.1226 15.2205 52.0379C13.9626 51.6882 12.0625 49.088 13.7018 45.4645C15.2554 42.0299 21.894 38.6704 22.8009 38.2239V38.2081C19.7253 35.5599 12.2423 31.9903 11.1873 26.5292C10.8882 24.9815 11.614 21.2776 16.1636 17.0224C19.99 13.4436 25.3115 10.7026 30.2272 8.95597C38.4873 6.02128 47.215 7.75206 48.5572 13.0155C49.8763 18.1901 45.3834 24.3816 39.6293 26.6076Z" fill="#CFD8DC"/>
</svg>
