<svg width="50" height="50" viewBox="0 0 50 50" fill="none" xmlns="http://www.w3.org/2000/svg">
<path d="M50 25C50 11.1929 38.8071 0 25 0C11.1929 0 0 11.1929 0 25C0 38.8071 11.1929 50 25 50C38.8071 50 50 38.8071 50 25Z" fill="#419FD9"/>
<path d="M50 25C50 11.1929 38.8071 0 25 0C11.1929 0 0 11.1929 0 25C0 38.8071 11.1929 50 25 50C38.8071 50 50 38.8071 50 25Z" fill="url(#paint0_linear_25426_78)"/>
<path d="M11.2369 24.4489C18.507 21.2149 23.3548 19.0828 25.7805 18.0526C32.7061 15.1115 34.1453 14.6005 35.0833 14.5835C35.2896 14.58 35.7508 14.6322 36.0497 14.8797C36.302 15.0887 36.3713 15.3711 36.4046 15.5693C36.4378 15.7675 36.4792 16.219 36.4462 16.5717C36.0709 20.5979 34.4471 30.3686 33.6208 34.8781C33.2712 36.7862 32.5829 37.426 31.9166 37.4886C30.4683 37.6247 29.3685 36.5115 27.9659 35.5726C25.7709 34.1036 24.531 33.1891 22.4004 31.7556C19.9382 30.099 21.5344 29.1884 22.9376 27.7003C23.3048 27.3109 29.6857 21.3849 29.8093 20.8474C29.8247 20.7801 29.8391 20.5295 29.6932 20.3972C29.5474 20.2649 29.3322 20.3101 29.1769 20.346C28.9568 20.3971 25.4503 22.7634 18.6576 27.4451C17.6623 28.1429 16.7608 28.4828 15.9531 28.465C15.0627 28.4454 13.3499 27.951 12.0766 27.5284C10.5148 27.01 9.27348 26.736 9.38156 25.8557C9.43786 25.3972 10.0563 24.9282 11.2369 24.4489Z" fill="white"/>
<defs>
<linearGradient id="paint0_linear_25426_78" x1="25" y1="0" x2="25" y2="49.6292" gradientUnits="userSpaceOnUse">
<stop stop-color="#2AABEE"/>
<stop offset="1" stop-color="#229ED9"/>
</linearGradient>
</defs>
</svg>
