<svg width="50" height="50" viewBox="0 0 50 50" fill="none" xmlns="http://www.w3.org/2000/svg">
<path d="M50 25C50 11.1929 38.8071 0 25 0C11.1929 0 0 11.1929 0 25C0 38.8071 11.1929 50 25 50C38.8071 50 50 38.8071 50 25Z" fill="#0DC143"/>
<path d="M36.1986 13.762C33.5184 11.0029 29.8135 9.50522 26.0297 9.50522C17.9892 9.50522 11.5252 16.048 11.6041 24.0097C11.6041 26.5322 12.3135 28.9759 13.4959 31.1831L11.4464 38.6719L19.0928 36.7012C21.2211 37.8836 23.586 38.4354 25.9508 38.4354C33.9126 38.4354 40.3766 31.8926 40.3766 23.9308C40.3766 20.0682 38.8789 16.4422 36.1986 13.762ZM26.0297 35.9917C23.9014 35.9917 21.7729 35.4399 19.9599 34.3363L19.4869 34.0998L14.9149 35.2822L16.0973 30.789L15.782 30.3161C12.3135 24.7192 13.9689 17.3093 19.6446 13.8408C25.3202 10.3723 32.6514 12.0277 36.1198 17.7034C39.5882 23.3791 37.9329 30.7102 32.2572 34.1787C30.4442 35.3611 28.2369 35.9917 26.0297 35.9917ZM32.9667 27.2417L32.0996 26.8475C32.0996 26.8475 30.8382 26.2957 30.05 25.9016C29.9711 25.9016 29.8923 25.8228 29.8135 25.8228C29.577 25.8228 29.4194 25.9016 29.2617 25.9804C29.2617 25.9804 29.1829 26.0593 28.0793 27.3205C28.0004 27.4782 27.8428 27.557 27.6851 27.557H27.6062C27.5275 27.557 27.3698 27.4782 27.2909 27.3994L26.8969 27.2417C26.0297 26.8475 25.2415 26.3746 24.6108 25.744C24.4531 25.5863 24.2167 25.4287 24.059 25.2709C23.5072 24.7192 22.9554 24.0886 22.5612 23.3791L22.4824 23.2215C22.4035 23.1426 22.4035 23.0638 22.3248 22.9062C22.3248 22.7484 22.3248 22.5908 22.4035 22.512C22.4035 22.512 22.7189 22.1178 22.9554 21.8814C23.113 21.7237 23.1919 21.4872 23.3496 21.3296C23.5072 21.093 23.586 20.7777 23.5072 20.5413C23.4283 20.1471 22.4824 18.0188 22.2459 17.5457C22.0882 17.3093 21.9306 17.2304 21.6942 17.1516H21.4576C21.3 17.1516 21.0635 17.1516 20.827 17.1516C20.6694 17.1516 20.5117 17.2304 20.3541 17.2304L20.2752 17.3093C20.1175 17.3881 19.9599 17.5457 19.8022 17.6246C19.6446 17.7822 19.5657 17.9399 19.4081 18.0975C18.8562 18.807 18.5409 19.6742 18.5409 20.5413C18.5409 21.1719 18.6986 21.8025 18.9351 22.3543L19.014 22.5908C19.7234 24.0886 20.6694 25.4287 21.9306 26.6111L22.2459 26.9264C22.4824 27.1629 22.7189 27.3205 22.8766 27.557C24.532 28.9759 26.4239 30.0007 28.5522 30.5525C28.7887 30.6314 29.1041 30.6314 29.3405 30.7102C29.577 30.7102 29.8923 30.7102 30.1289 30.7102C30.5229 30.7102 30.9959 30.5525 31.3112 30.3949C31.5477 30.2372 31.7054 30.2372 31.863 30.0796L32.0207 29.9219C32.1783 29.7642 32.336 29.6854 32.4936 29.5277C32.6514 29.3701 32.809 29.2124 32.8878 29.0548C33.0455 28.7395 33.1243 28.3453 33.2031 27.9512C33.2031 27.7936 33.2031 27.557 33.2031 27.3994C33.2031 27.3994 33.1243 27.3205 32.9667 27.2417Z" fill="white"/>
</svg>
